<svg width="24" height="24" viewBox="0 0 24 24" fill="none" xmlns="http://www.w3.org/2000/svg">
<path d="M12 20.2C11.46 20.2 10.95 19.99 10.56 19.61L6.89998 15.98C5.53998 14.63 4.78998 12.84 4.78998 10.94C4.78998 9.04 5.53998 7.24 6.89998 5.9C8.25998 4.55 10.07 3.81 11.99 3.81C13.91 3.81 15.72 4.55 17.08 5.9C18.44 7.25 19.19 9.04 19.19 10.94C19.19 12.84 18.44 14.64 17.08 15.98L13.42 19.61C13.04 19.99 12.53 20.2 11.98 20.2H12Z" fill="white"/>
<path d="M12 4.6C13.71 4.6 15.32 5.26 16.53 6.46C17.74 7.66 18.4 9.25 18.4 10.94C18.4 12.63 17.74 14.22 16.53 15.42L12.87 19.05C12.64 19.28 12.33 19.41 12 19.41C11.67 19.41 11.36 19.28 11.13 19.05L7.47 15.42C6.26 14.22 5.6 12.63 5.6 10.94C5.6 9.25 6.26 7.66 7.47 6.46C8.68 5.26 10.29 4.6 12 4.6ZM12 3C9.95 3 7.91 3.77 6.34 5.32C3.22 8.42 3.22 13.45 6.34 16.54L10 20.17C10.55 20.72 11.28 20.99 12 20.99C12.72 20.99 13.45 20.72 14 20.17L17.66 16.54C20.78 13.44 20.78 8.41 17.66 5.32C16.1 3.77 14.05 3 12 3Z" fill="#030416"/>
<path d="M12 18C15.866 18 19 14.866 19 11C19 7.13401 15.866 4 12 4C8.13401 4 5 7.13401 5 11C5 14.866 8.13401 18 12 18Z" fill="#5ED3CC"/>
<path d="M12 13.7C13.4912 13.7 14.7 12.4912 14.7 11C14.7 9.50883 13.4912 8.3 12 8.3C10.5088 8.3 9.29999 9.50883 9.29999 11C9.29999 12.4912 10.5088 13.7 12 13.7Z" fill="white"/>
<path d="M12 9.1C13.05 9.1 13.9 9.95 13.9 11C13.9 12.05 13.05 12.9 12 12.9C10.95 12.9 10.1 12.05 10.1 11C10.1 9.95 10.95 9.1 12 9.1ZM12 7.5C10.07 7.5 8.5 9.07 8.5 11C8.5 12.93 10.07 14.5 12 14.5C13.93 14.5 15.5 12.93 15.5 11C15.5 9.07 13.93 7.5 12 7.5Z" fill="#030416"/>
<path d="M12 4.6C13.71 4.6 15.32 5.26 16.53 6.46C17.74 7.66 18.4 9.25 18.4 10.94C18.4 12.63 17.74 14.22 16.53 15.42L12.87 19.05C12.64 19.28 12.33 19.41 12 19.41C11.67 19.41 11.36 19.28 11.13 19.05L7.47 15.42C6.26 14.22 5.6 12.63 5.6 10.94C5.6 9.25 6.26 7.66 7.47 6.46C8.68 5.26 10.29 4.6 12 4.6ZM12 3C9.95 3 7.91 3.77 6.34 5.32C3.22 8.42 3.22 13.45 6.34 16.54L10 20.17C10.55 20.72 11.28 20.99 12 20.99C12.72 20.99 13.45 20.72 14 20.17L17.66 16.54C20.78 13.44 20.78 8.41 17.66 5.32C16.1 3.77 14.05 3 12 3Z" fill="#030416"/>
</svg>
