<svg width="48" height="48" viewBox="0 0 48 48" fill="none" xmlns="http://www.w3.org/2000/svg">
<circle cx="24" cy="24" r="23.5" fill="white" stroke="#DDDFE9"/>
<path fill-rule="evenodd" clip-rule="evenodd" d="M31.2 24C31.2 23.5581 31.5582 23.2 32 23.2H33C33.4418 23.2 33.8 23.5581 33.8 24C33.8 24.4418 33.4418 24.8 33 24.8H32C31.5582 24.8 31.2 24.4418 31.2 24Z" fill="#030416"/>
<path fill-rule="evenodd" clip-rule="evenodd" d="M14.2 24C14.2 23.5581 14.5582 23.2 15 23.2H16C16.4418 23.2 16.8 23.5581 16.8 24C16.8 24.4418 16.4418 24.8 16 24.8H15C14.5582 24.8 14.2 24.4418 14.2 24Z" fill="#030416"/>
<path fill-rule="evenodd" clip-rule="evenodd" d="M24 14.2C24.4418 14.2 24.8 14.5581 24.8 15V16C24.8 16.4418 24.4418 16.8 24 16.8C23.5582 16.8 23.2 16.4418 23.2 16V15C23.2 14.5581 23.5582 14.2 24 14.2Z" fill="#030416"/>
<path fill-rule="evenodd" clip-rule="evenodd" d="M24 31.2C24.4418 31.2 24.8 31.5581 24.8 32V33C24.8 33.4418 24.4418 33.8 24 33.8C23.5582 33.8 23.2 33.4418 23.2 33V32C23.2 31.5581 23.5582 31.2 24 31.2Z" fill="#030416"/>
<path d="M24 17.6C27.53 17.6 30.4 20.47 30.4 24C30.4 27.53 27.53 30.4 24 30.4C20.47 30.4 17.6 27.53 17.6 24C17.6 20.47 20.47 17.6 24 17.6ZM24 16C19.58 16 16 19.58 16 24C16 28.42 19.58 32 24 32C28.42 32 32 28.42 32 24C32 19.58 28.42 16 24 16Z" fill="#030416"/>
<path d="M24 28C26.2091 28 28 26.2091 28 24C28 21.7909 26.2091 20 24 20C21.7909 20 20 21.7909 20 24C20 26.2091 21.7909 28 24 28Z" fill="#5ED3CC"/>
</svg>
