<svg width="24" height="24" viewBox="0 0 24 24" fill="none" xmlns="http://www.w3.org/2000/svg">
<path d="M12.0522 11.2C13.5433 11.2 14.7522 9.99117 14.7522 8.5C14.7522 7.00883 13.5433 5.8 12.0522 5.8C10.561 5.8 9.35217 7.00883 9.35217 8.5C9.35217 9.99117 10.561 11.2 12.0522 11.2Z" fill="white"/>
<path d="M12.0521 6.6C13.1021 6.6 13.9521 7.45 13.9521 8.5C13.9521 9.55 13.1021 10.4 12.0521 10.4C11.0021 10.4 10.1521 9.55 10.1521 8.5C10.1521 7.45 11.0021 6.6 12.0521 6.6ZM12.0521 5C10.1221 5 8.55212 6.57 8.55212 8.5C8.55212 10.43 10.1221 12 12.0521 12C13.9821 12 15.5521 10.43 15.5521 8.5C15.5521 6.57 13.9821 5 12.0521 5Z" fill="#030416"/>
<path d="M7.02216 19.2C6.60216 19.2 6.21216 18.99 5.99216 18.63C5.77216 18.28 5.75216 17.88 5.92216 17.52C6.99216 15.28 9.40216 13.84 12.0522 13.84C14.7022 13.84 17.1122 15.28 18.1822 17.52C18.3522 17.88 18.3322 18.28 18.1122 18.63C17.8822 18.99 17.5022 19.2 17.0822 19.2H7.02216Z" fill="#5ED3CC"/>
<path d="M12.0521 14.64C14.4021 14.64 16.5221 15.91 17.4621 17.87C17.5121 17.98 17.5021 18.1 17.4321 18.21C17.3921 18.27 17.2821 18.41 17.0721 18.41H7.02209C6.81209 18.41 6.70209 18.27 6.66209 18.21C6.59209 18.1 6.58209 17.98 6.63209 17.87C7.57209 15.91 9.69209 14.64 12.0421 14.64M12.0421 13.04C8.98209 13.04 6.35209 14.74 5.19209 17.17C4.56209 18.48 5.56209 20 7.02209 20H17.0821C18.5421 20 19.5321 18.48 18.9121 17.17C17.7421 14.73 15.1121 13.04 12.0621 13.04H12.0421Z" fill="#030416"/>
</svg>
