<svg width="24" height="24" viewBox="0 0 24 24" fill="none" xmlns="http://www.w3.org/2000/svg">
<path d="M7.02216 19.2C6.60216 19.2 6.21216 18.99 5.99216 18.63C5.77216 18.28 5.75216 17.88 5.92216 17.52C6.99216 15.28 9.40216 13.84 12.0522 13.84C14.7022 13.84 17.1122 15.28 18.1822 17.52C18.3522 17.88 18.3322 18.28 18.1122 18.63C17.8822 18.99 17.5022 19.2 17.0822 19.2H7.02216Z" fill="white"/>
<path d="M12 11.2C13.4912 11.2 14.7 9.99117 14.7 8.5C14.7 7.00883 13.4912 5.8 12 5.8C10.5089 5.8 9.30005 7.00883 9.30005 8.5C9.30005 9.99117 10.5089 11.2 12 11.2Z" fill="white"/>
<path d="M12 6.6C13.05 6.6 13.9 7.45 13.9 8.5C13.9 9.55 13.05 10.4 12 10.4C10.95 10.4 10.1 9.55 10.1 8.5C10.1 7.45 10.95 6.6 12 6.6ZM12 5C10.07 5 8.5 6.57 8.5 8.5C8.5 10.43 10.07 12 12 12C13.93 12 15.5 10.43 15.5 8.5C15.5 6.57 13.93 5 12 5Z" fill="#030416"/>
<path d="M12 14.64C14.35 14.64 16.47 15.91 17.41 17.87C17.46 17.98 17.45 18.1 17.38 18.21C17.34 18.27 17.23 18.41 17.02 18.41H6.96997C6.75997 18.41 6.64997 18.27 6.60997 18.21C6.53997 18.1 6.52997 17.98 6.57997 17.87C7.51997 15.91 9.63997 14.64 11.99 14.64M11.99 13.04C8.92997 13.04 6.29997 14.74 5.13997 17.17C4.50997 18.48 5.50997 20 6.96997 20H17.03C18.49 20 19.48 18.48 18.86 17.17C17.69 14.73 15.06 13.04 12.01 13.04H11.99Z" fill="#030416"/>
</svg>
