<svg width="50" height="24" viewBox="0 0 50 24" fill="none" xmlns="http://www.w3.org/2000/svg">
<rect width="50" height="24" rx="12" fill="#F4F5F9"/>
<path d="M17.41 14.74H22.64V16.78H23.67V13.91H17.41V14.74ZM18.58 9.67H22.6V10.56H18.58V9.67ZM21.1 12.31V11.38H23.62V7.96H22.6V8.88H18.58V7.96H17.56V11.38H20.06V12.31H16.49V13.15H24.68V12.31H21.1ZM28.3692 8.49H27.3392V9.97C27.3392 11.64 26.4592 13.35 25.0492 14.04L25.6792 14.87C26.7092 14.34 27.4692 13.29 27.8592 12.04C28.2492 13.22 28.9692 14.2 29.9392 14.7L30.5692 13.88C29.2092 13.21 28.3692 11.58 28.3692 9.97V8.49ZM33.6092 11.32H32.1992V7.74H31.1692V16.77H32.1992V12.17H33.6092V11.32Z" fill="#030416"/>
</svg>
