<svg width="80" height="97" viewBox="0 0 80 97" fill="none" xmlns="http://www.w3.org/2000/svg">
<path d="M79.9203 65.483C80.3036 60.8165 79.2328 56.2491 78.2414 51.6818C77.6002 48.7338 76.6749 45.9247 75.3 43.3072C74.5796 41.939 74.9563 41.3309 75.3 40.0287C76.8665 27.5957 73.4691 10.1063 62.0078 3.19244C59.9653 1.92337 57.7511 0.938509 55.431 0.29075C52.807 -0.442935 50.4539 0.330409 47.9289 1.29544C45.7543 2.12166 43.1501 3.45683 41.7157 5.36706C40.9358 6.4048 40.1558 7.43592 39.3825 8.47366C36.2296 2.82891 28.8862 -1.73845 22.5672 1.55983C17.8743 4.09798 13.8886 7.88538 11.0332 12.38C6.96153 18.9766 5.85108 26.7166 6.05599 34.3377C6.10887 35.9902 6.72358 38.7398 6.03616 40.2733C4.81996 42.9899 3.24022 45.4884 2.23554 48.3372C-0.712426 56.9696 -0.712426 66.3687 2.04385 75.1068C6.32038 88.0752 19.8969 94.3082 32.5414 95.9937C40.2418 97.0249 48.0942 96.4432 55.6359 94.6387C69.3116 91.3603 78.7834 79.2512 79.9203 65.483Z" fill="#EAEBF1"/>
<path d="M38.4308 15.9562C38.0078 15.3415 37.8888 14.4095 37.7963 13.6825C37.7037 12.9554 37.6839 12.1622 37.7963 11.4087C37.8888 10.8072 38.0144 9.33985 38.563 8.96309C39.3694 8.41448 40.3609 9.45221 40.6781 10.1198C41.1474 11.0914 41.1011 12.3341 41.121 13.3916C41.1474 14.6078 41.5374 16.5313 39.8122 16.6238C39.1447 16.6569 38.715 16.3859 38.4242 15.9628L38.4308 15.9562Z" fill="#EAEBF1"/>
<path d="M54.7634 77.3086C54.6048 75.7751 54.737 74.3077 55.6359 72.9197C57.4999 70.051 61.2542 68.2862 64.6913 68.9075C68.5184 69.6016 71.4069 73.5542 71.2813 77.335C71.1425 81.5785 67.7847 85.8616 63.1975 85.8153C59.0532 85.7757 55.8541 83.1846 55.0477 79.1262C54.9287 78.5115 54.8229 77.91 54.7568 77.3152L54.7634 77.3086Z" fill="#D2D4E0"/>
<path d="M18.4956 69.6079C19.6325 69.5814 20.8024 69.7731 21.9459 70.216C25.1054 71.4388 27.0024 75.398 26.6455 78.7029C26.3348 81.5649 24.5832 84.4997 21.9129 85.7027C17.3852 87.7385 10.8547 84.308 9.99542 79.4498C9.037 74.0364 13.4788 69.7268 18.4956 69.6145V69.6079Z" fill="#D2D4E0"/>
<path d="M52.6351 36.9283C52.5161 36.7829 52.4368 36.5714 52.3971 36.2739C52.2451 35.1899 51.9675 34.1522 51.9146 33.0418C51.789 30.1863 51.9344 27.3111 52.3509 24.4821C52.5425 23.1601 52.9986 21.7853 53.0317 20.4567C53.0449 19.9214 53.0647 18.9629 53.653 18.7118C54.6048 18.3086 55.6558 19.6371 56.2506 20.1527C58.5773 22.2017 60.818 24.3169 62.9992 26.4981C62.9926 26.4849 62.0408 28.0844 61.9747 28.2563C61.7301 28.8776 61.5781 29.532 61.5318 30.1996C61.4393 31.4224 61.7301 32.513 62.4242 33.5111C59.7406 34.985 57.0108 36.4061 53.9967 37.0803C53.3489 37.2258 52.8995 37.239 52.6417 36.9283H52.6351Z" fill="white"/>
<path d="M45.3246 79.1051C44.4323 79.4422 43.5268 79.7198 42.608 79.9379C40.9225 80.3345 39.0321 79.5413 37.4392 79.0192C37.3334 78.9861 37.221 78.9531 37.1219 78.9927C36.9963 79.0456 36.9302 79.191 36.8905 79.3298C35.8462 82.6083 38.695 86.9906 41.9867 86.6138C44.6306 86.3164 46.1575 82.3769 46.3624 79.8851C46.3888 79.6008 46.369 79.2637 46.1641 79.0853C45.9327 78.8936 45.6088 78.9927 45.3312 79.0985L45.3246 79.1051Z" fill="white"/>
<path d="M28.1195 64.1475C25.0062 64.055 22.6928 65.1126 20.9082 67.3467C20.5711 67.7697 20.2142 68.2059 19.7779 68.5166C19.15 68.9595 18.4031 69.0057 17.795 68.5034C16.3078 67.274 19.7647 63.751 20.7165 62.9776C22.5342 61.5036 24.8542 60.6245 27.2073 60.651C28.1128 60.6642 31.8143 61.6358 31.041 63.1891C30.803 63.6584 30.4858 64.1475 29.838 64.1475C29.177 64.1475 28.516 64.1475 28.1261 64.1475H28.1195Z" fill="#8C8DA8"/>
<path d="M43.9168 72.1321C43.9234 72.3899 43.9168 72.641 43.8837 72.8856C43.4871 75.9591 39.3957 76.977 37.7961 74.1811C37.2673 73.2557 37.2673 72.1056 37.5515 71.0745C38.0142 69.4155 39.8187 66.3022 41.8215 67.915C43.0244 68.8801 43.8639 70.5325 43.9168 72.1321Z" fill="#8C8DA8"/>
<path d="M54.1753 60.1149C57.7908 59.8769 61.9021 62.4415 62.6887 66.024C62.9134 67.0287 62.5829 67.5443 61.9153 67.9012C61.1684 68.3044 60.5867 67.9144 60.2034 67.1477C58.7823 64.3452 56.3234 63.4528 53.3689 63.4462C52.265 63.4462 50.6589 63.7437 50.5333 62.3027C50.4341 61.1196 51.7429 60.69 52.6616 60.3925C53.1507 60.2405 53.6531 60.148 54.1753 60.1149Z" fill="#8C8DA8"/>
<path d="M62.4506 33.5183C61.1419 32.0641 61.3402 29.6978 62.0672 28.0256C62.2325 27.6422 62.5233 26.8688 62.8868 26.6375C63.2504 26.4062 63.799 26.8094 64.1691 27.0539C65.5506 27.9595 66.4297 29.5128 65.8282 31.1322C65.2928 32.5665 63.9114 33.3398 62.4506 33.5249V33.5183Z" fill="#D2D4E0"/>
<path d="M39.7924 15.4669C42.5156 15.4206 45.2256 15.7776 47.8893 16.3064C49.0593 16.5377 50.2028 16.9012 51.3066 17.3375C52.0535 17.6349 52.8268 17.8861 53.5539 18.243C54.4925 18.7057 54.6379 18.8181 54.4793 19.8558C54.1752 21.8189 53.9505 23.7886 53.7919 25.765C53.6398 27.695 53.5473 29.6251 53.5275 31.5617C53.5143 32.7184 53.6002 33.8685 53.6465 35.0253C53.6927 36.215 53.9637 37.7287 52.3047 37.4048C51.062 37.0941 49.555 37.2594 48.2793 37.2527C42.9122 37.2131 37.5649 37.7551 32.2176 38.1517C29.686 38.3434 27.1479 38.4954 24.6097 38.5086C23.7042 38.5086 22.2764 38.7664 21.4767 38.2839C20.7628 37.8608 20.3001 36.9156 20.2142 36.1225C19.7581 32.0641 20.3067 28.0453 21.0735 24.0662C21.4701 22.004 23.8892 20.9795 25.5285 19.9814C27.551 18.752 29.6794 17.6812 31.9069 16.8814C34.5574 15.9296 37.1749 15.5132 39.8056 15.4735L39.7924 15.4669Z" fill="#D2D4E0"/>
<path d="M41.2927 88.0297C39.6733 88.0297 38.1332 86.8928 37.1153 85.7163C35.9454 84.3613 35.3968 82.6692 35.1059 80.9044C35.0134 80.3492 35.1192 79.6221 34.8548 79.1396C34.5904 78.657 33.9492 78.3332 33.4535 78.0886C32.9974 77.8639 32.581 77.6061 32.2439 77.2624C31.7812 76.7865 31.2789 75.5835 32.0456 75.1473C32.6603 74.7969 33.242 75.2728 33.7245 75.6099C34.359 76.066 35.02 76.4494 35.7471 76.7468C37.1351 77.3153 38.6157 77.5995 40.0699 77.9101C42.965 78.5249 45.3247 77.5532 47.5786 75.7884C48.0082 75.4513 48.4246 75.0745 48.9336 74.8763C50.6852 74.2087 50.943 76.5485 49.7334 77.2756C47.5522 78.5843 48.0413 81.4728 47.3671 83.5946C46.6268 85.9212 43.811 88.3007 41.2861 88.0363L41.2927 88.0297ZM42.033 86.0203C44.4191 85.7692 45.4899 83.2508 45.7345 81.1754C45.946 79.708 44.9942 79.7146 43.9102 80.131C42.3965 80.8713 40.7176 80.7325 39.1643 80.1839C38.2654 79.9195 37.7763 79.3312 37.3929 80.402C36.8708 83.0724 39.171 86.2583 42.033 86.0071V86.0203Z" fill="#8C8DA8"/>
<path d="M25.3697 25.7442C32.3959 22.7301 40.2681 21.7519 47.8165 22.935C49.0658 23.1333 49.6011 21.2231 48.3453 21.0248C40.2153 19.7491 31.9332 20.7935 24.365 24.0323C23.1951 24.5346 24.2064 26.2399 25.3631 25.7442H25.3697Z" fill="white"/>
<path d="M25.1781 33.3272C32.4092 32.2763 39.7395 32.0053 47.0234 32.468C48.3256 32.5539 48.3256 30.5181 47.0234 30.4388C39.5412 29.9629 32.0523 30.2933 24.6361 31.3707C24.0875 31.4501 23.7967 32.1375 23.9289 32.62C24.0809 33.2016 24.6361 33.4066 25.1781 33.3272Z" fill="white"/>
</svg>
