<svg width="80" height="96" viewBox="0 0 122 146" fill="none" xmlns="http://www.w3.org/2000/svg">
<path d="M120.912 99.0699C121.492 92.0099 119.872 85.0999 118.372 78.1899C117.402 73.7299 116.002 69.4799 113.922 65.5199C112.832 63.4499 113.402 62.5299 113.922 60.5599C116.292 41.7499 111.152 15.2899 93.8122 4.82988C90.7222 2.90988 87.3722 1.41988 83.8622 0.439879C79.8922 -0.670121 76.3322 0.499879 72.5122 1.95988C69.2222 3.20988 65.2822 5.22988 63.1122 8.11988C61.9322 9.68988 60.7522 11.2499 59.5822 12.8199C54.8122 4.27988 43.7022 -2.63012 34.1422 2.35988C27.0422 6.19988 21.0122 11.9299 16.6922 18.7299C10.5322 28.7099 8.85216 40.4199 9.16216 51.9499C9.24216 54.4499 10.1722 58.6099 9.13216 60.9299C7.29216 65.0399 4.90216 68.8199 3.38216 73.1299C-1.07784 86.1899 -1.07784 100.41 3.09216 113.63C9.56216 133.25 30.1022 142.68 49.2322 145.23C60.8822 146.79 72.7622 145.91 84.1722 143.18C104.862 138.22 119.192 119.9 120.912 99.0699Z" fill="#FBB338"/>
<path d="M56.1022 22.9198C56.2222 20.5698 56.5122 18.2498 57.0422 16.0598C57.2622 15.1598 57.6322 12.9698 58.5122 12.4698C62.6522 10.1398 61.4022 19.2898 61.2222 20.6198C60.5822 25.2298 61.7722 30.0698 61.2822 34.7798C61.1022 36.4998 60.8222 38.2498 59.9822 39.7598C59.7922 40.1098 59.4822 40.4898 59.0822 40.4598C58.8522 40.4398 58.6622 40.2998 58.5022 40.1498C57.0022 38.7798 56.6522 36.5798 56.4722 34.5598C56.1322 30.8498 55.8922 26.8398 56.0922 22.9298L56.1022 22.9198Z" fill="#FE9600"/>
<path d="M82.8521 116.96C82.6121 114.64 82.8121 112.42 84.1721 110.32C86.9921 105.98 92.6721 103.31 97.8721 104.25C103.662 105.3 108.032 111.28 107.842 117C107.632 123.42 102.552 129.9 95.6122 129.83C89.3422 129.77 84.5021 125.85 83.2821 119.71C83.1021 118.78 82.9421 117.87 82.8421 116.97L82.8521 116.96Z" fill="#FE9600"/>
<path d="M27.9821 105.31C29.7021 105.27 31.4721 105.56 33.2021 106.23C37.9821 108.08 40.8521 114.07 40.3121 119.07C39.8421 123.4 37.1921 127.84 33.1521 129.66C26.3021 132.74 16.4221 127.55 15.1221 120.2C13.6721 112.01 20.3921 105.49 27.9821 105.32V105.31Z" fill="#FE9600"/>
<path d="M68.5722 119.68C67.2222 120.19 65.8522 120.61 64.4622 120.94C61.9122 121.54 59.0522 120.34 56.6422 119.55C56.4822 119.5 56.3122 119.45 56.1622 119.51C55.9722 119.59 55.8722 119.81 55.8122 120.02C54.2322 124.98 58.5422 131.61 63.5222 131.04C67.5222 130.59 69.8322 124.63 70.1422 120.86C70.1822 120.43 70.1522 119.92 69.8422 119.65C69.4922 119.36 69.0022 119.51 68.5822 119.67L68.5722 119.68Z" fill="white"/>
<path d="M42.5422 97.0499C37.8322 96.9099 34.3322 98.5099 31.6322 101.89C31.1222 102.53 30.5822 103.19 29.9222 103.66C28.9722 104.33 27.8422 104.4 26.9222 103.64C24.6722 101.78 29.9022 96.4499 31.3422 95.2799C34.0922 93.0499 37.6022 91.7199 41.1622 91.7599C42.5322 91.7799 48.1322 93.2499 46.9622 95.5999C46.6022 96.3099 46.1222 97.0499 45.1422 97.0499C44.1422 97.0499 43.1422 97.0499 42.5522 97.0499H42.5422Z" fill="#5C4530"/>
<path d="M66.4422 109.13C66.4522 109.52 66.4422 109.9 66.3922 110.27C65.7922 114.92 59.6022 116.46 57.1822 112.23C56.3822 110.83 56.3822 109.09 56.8122 107.53C57.5122 105.02 60.2422 100.31 63.2722 102.75C65.0922 104.21 66.3622 106.71 66.4422 109.13Z" fill="#5C4530"/>
<path d="M81.9621 90.9499C87.4321 90.5899 93.6521 94.4699 94.8421 99.8899C95.1821 101.41 94.6821 102.19 93.6721 102.73C92.5421 103.34 91.6621 102.75 91.0821 101.59C88.9321 97.3499 85.2121 95.9999 80.7421 95.9899C79.0721 95.9899 76.6421 96.4399 76.4521 94.2599C76.3021 92.4699 78.2821 91.8199 79.6721 91.3699C80.4121 91.1399 81.1721 90.9999 81.9621 90.9499Z" fill="#5C4530"/>
<path d="M62.4722 133.18C60.0222 133.18 57.6922 131.46 56.1522 129.68C54.3822 127.63 53.5522 125.07 53.1122 122.4C52.9722 121.56 53.1322 120.46 52.7322 119.73C52.3322 119 51.3622 118.51 50.6122 118.14C49.9222 117.8 49.2922 117.41 48.7822 116.89C48.0822 116.17 47.3222 114.35 48.4822 113.69C49.4122 113.16 50.2922 113.88 51.0222 114.39C51.9822 115.08 52.9822 115.66 54.0822 116.11C56.1822 116.97 58.4222 117.4 60.6222 117.87C65.0022 118.8 68.5722 117.33 71.9822 114.66C72.6322 114.15 73.2622 113.58 74.0322 113.28C76.6822 112.27 77.0722 115.81 75.2422 116.91C71.9422 118.89 72.6822 123.26 71.6622 126.47C70.5422 129.99 66.2822 133.59 62.4622 133.19L62.4722 133.18ZM63.5922 130.14C67.2022 129.76 68.8222 125.95 69.1922 122.81C69.5122 120.59 68.0722 120.6 66.4322 121.23C64.1422 122.35 61.6022 122.14 59.2522 121.31C57.8922 120.91 57.1522 120.02 56.5722 121.64C55.7822 125.68 59.2622 130.5 63.5922 130.12V130.14Z" fill="#5C4530"/>
</svg>
