<svg width="100%" height="100%" viewBox="0 0 390 844" fill="none" xmlns="http://www.w3.org/2000/svg">
<rect width="390" height="844" rx="40" fill="white"/>
<path d="M237.976 495.822C236.936 487.262 234.116 479.112 228.736 472.082C227.796 470.852 227.926 469.692 228.986 468.112C232.996 462.132 235.896 455.012 236.286 447.762C236.836 437.612 234.986 426.532 229.236 417.982C228.436 416.792 228.146 415.702 228.266 414.292C229.806 395.872 221.816 381.672 208.016 370.492C200.036 364.022 187.786 363.802 181.226 374.742C180.386 376.152 179.956 376.272 178.756 374.972C173.636 369.412 166.386 367.952 159.256 371.142C152.216 374.292 148.296 380.002 145.946 386.972C144.306 391.842 143.336 396.892 142.536 401.972C141.486 408.502 141.996 414.912 143.926 421.182C144.586 423.342 144.756 425.392 144.226 427.522C142.626 433.852 141.656 440.292 142.196 446.782C143.186 458.722 147.556 468.942 158.496 475.222C160.316 476.272 160.396 477.032 159.116 478.532C149.496 489.762 148.816 502.582 152.916 516.022C155.046 523.022 158.636 529.422 161.976 535.892C163.486 538.822 165.106 541.632 166.906 544.322C168.996 547.442 171.326 550.392 174.006 553.172C175.966 555.202 177.836 556.282 180.546 554.972C185.296 552.672 189.746 550.452 194.836 548.972C199.616 547.582 204.606 546.912 209.606 546.932C211.836 546.932 214.026 546.952 216.216 547.442C217.706 547.772 219.276 548.582 220.806 548.022C221.906 547.612 222.776 546.752 223.576 545.882C236.306 532.072 240.206 514.072 237.986 495.822H237.976Z" fill="#FAB338"/>
<path d="M167.306 544.832C170.356 542.792 174.076 541.882 178.416 542.802C180.116 543.162 181.766 543.862 183.066 545.012C184.996 546.722 185.986 549.342 185.976 551.922C185.956 556.702 182.636 559.502 180.226 563.212C177.476 567.442 173.946 571.112 169.996 574.232C167.296 576.362 164.286 577.042 161.136 575.752C157.686 574.342 157.166 570.932 157.076 567.852C156.856 559.852 160.386 549.452 167.306 544.842V544.832Z" fill="#5C4531"/>
<path d="M219.175 548.273C218.005 547.713 216.995 546.913 216.235 545.703C212.215 539.233 218.915 533.663 224.495 531.893C233.405 529.063 243.945 534.513 248.005 542.683C250.705 548.133 247.435 553.573 241.375 553.783C236.725 553.943 232.405 552.423 228.015 551.203C225.715 550.563 223.535 549.643 221.265 549.033C220.525 548.833 219.815 548.593 219.165 548.273H219.175Z" fill="#5C4531"/>
<path d="M173.445 457.951C173.465 464.241 168.145 469.361 161.755 469.341C156.255 469.341 151.835 463.221 151.875 459.181C151.945 451.851 155.665 447.831 162.555 447.871C168.895 447.901 173.425 452.101 173.445 457.941V457.951Z" fill="#FD9601"/>
<path d="M213.506 441.982C216.656 441.222 220.176 441.782 222.726 443.832C226.206 446.622 227.846 449.622 227.186 454.492C226.486 459.672 224.126 462.632 219.536 464.402C213.786 466.612 208.036 461.292 206.356 456.082C204.436 450.122 207.166 443.512 213.496 441.982H213.506Z" fill="#FD9601"/>
<path d="M174.655 500.172C175.745 500.432 176.985 500.102 177.885 501.042C178.095 502.682 177.505 503.912 176.135 504.892C172.755 507.302 169.595 510.012 165.985 512.112C164.305 513.092 162.845 513.062 161.915 511.402C160.905 509.602 162.585 509.052 163.775 508.312C167.625 505.902 171.695 503.782 174.655 500.182V500.172Z" fill="#FD9601"/>
<path d="M178.945 383.932C178.945 382.452 178.915 380.982 178.955 379.502C178.985 378.532 179.315 377.732 180.095 377.542C180.955 377.332 181.495 377.882 181.845 378.962C183.495 384.122 183.645 389.722 184.315 395.152C184.495 396.622 183.935 397.882 182.795 398.242C181.705 398.592 180.855 397.982 180.365 396.532C179.005 392.512 179.035 388.202 178.955 383.922L178.945 383.932Z" fill="#FD9601"/>
<path d="M213.635 442.021C213.495 442.131 213.335 442.231 213.135 442.321C211.315 443.131 209.635 440.691 208.265 439.931C206.375 438.871 204.315 438.181 202.145 438.071C199.695 437.951 198.815 435.611 201.125 434.491C204.025 433.081 207.925 434.231 210.415 435.971C211.775 436.921 215.885 440.201 213.635 442.031V442.021Z" fill="#5C4531"/>
<path d="M161.986 445.242C162.316 442.722 165.726 439.472 167.366 438.392C168.716 437.492 173.476 435.802 174.666 437.562C175.946 439.452 173.196 440.672 172.016 441.252C169.676 442.412 167.586 443.552 165.976 445.682C165.056 446.902 162.856 448.962 162.046 446.292C161.946 445.962 161.926 445.612 161.976 445.252L161.986 445.242Z" fill="#5C4531"/>
<path d="M193.185 448.563C193.225 448.773 193.255 448.973 193.265 449.173C193.675 454.523 185.935 454.473 185.665 449.373C185.575 447.633 187.125 444.333 189.155 444.133C191.395 443.903 192.825 446.573 193.195 448.573L193.185 448.563Z" fill="#5C4531"/>
<path d="M194.515 457.642C193.595 458.072 192.655 458.442 191.705 458.742C189.945 459.302 187.885 458.602 186.155 458.182C186.045 458.152 185.915 458.132 185.815 458.182C185.685 458.242 185.635 458.412 185.595 458.552C184.745 462.112 188.115 466.522 191.565 465.862C194.345 465.332 195.645 461.042 195.665 458.382C195.665 458.072 195.625 457.722 195.385 457.552C195.125 457.362 194.785 457.502 194.505 457.632L194.515 457.642Z" fill="white"/>
<path d="M190.946 467.413C189.226 467.543 187.506 466.453 186.336 465.293C184.986 463.953 184.276 462.203 183.826 460.353C183.686 459.773 183.736 458.993 183.416 458.503C183.096 458.013 182.386 457.723 181.856 457.503C181.356 457.303 180.896 457.063 180.516 456.723C179.986 456.253 179.356 455.023 180.146 454.493C180.766 454.073 181.426 454.523 181.966 454.853C182.676 455.283 183.406 455.643 184.196 455.903C185.706 456.403 187.296 456.583 188.866 456.793C191.976 457.213 194.406 455.993 196.646 453.953C197.076 453.563 197.486 453.123 198.006 452.883C199.806 452.033 200.266 454.493 199.046 455.363C196.836 456.923 197.586 459.943 197.046 462.243C196.446 464.763 193.646 467.513 190.956 467.433L190.946 467.413ZM191.566 465.223C194.076 464.763 195.006 462.013 195.106 459.803C195.216 458.233 194.206 458.313 193.096 458.843C191.546 459.753 189.766 459.733 188.076 459.283C187.096 459.073 186.536 458.483 186.216 459.653C185.876 462.523 188.566 465.713 191.576 465.223H191.566Z" fill="#5C4530"/>
<path d="M216.256 495.221C217.256 489.741 216.886 484.001 214.066 479.091C212.126 475.721 208.876 472.181 205.426 470.321C202.386 468.671 199.256 468.931 196.816 471.511C195.776 472.611 193.726 476.031 195.006 477.321C194.816 476.141 194.006 475.091 193.096 474.311C188.956 470.761 183.686 471.931 179.146 474.081C174.976 476.061 171.656 479.511 170.166 483.921C168.266 489.571 169.296 496.861 174.646 500.171C175.736 500.431 176.976 500.101 177.876 501.041C186.266 500.211 191.246 495.151 194.486 487.241C195.276 492.011 197.166 495.831 200.066 499.091C202.706 502.061 205.986 503.291 209.926 502.191C213.476 501.201 215.596 498.781 216.246 495.221H216.256Z" fill="#5C4531"/>
<path d="M200.526 447.442C198.696 446.242 196.226 447.212 195.706 449.332C194.516 454.142 192.826 458.802 191.666 463.622C190.626 467.922 189.576 472.222 188.656 476.552C188.226 478.572 187.106 483.582 190.716 482.922C192.376 482.622 193.856 480.852 195.176 479.852C196.606 478.762 198.006 477.622 199.426 476.522C200.506 475.682 201.736 475.212 202.826 474.352C206.526 471.452 209.996 468.272 213.206 464.832C214.366 463.582 216.296 462.832 217.176 461.372C218.056 459.912 217.616 457.992 216.206 457.062L200.526 447.422V447.442Z" fill="#00D4CB"/>
<path d="M193.785 472.143C193.965 472.113 193.975 472.113 193.805 472.143C193.895 472.133 193.995 472.123 194.085 472.113C196.195 471.903 198.205 472.573 200.275 472.823C201.405 472.963 204.545 473.463 203.215 471.313C201.125 467.943 195.175 467.523 191.965 469.303C191.475 469.573 190.985 469.963 190.915 470.513C190.795 471.563 192.985 472.263 193.785 472.143Z" fill="#FFE576"/>
<path d="M196.436 460.462C197.396 460.512 198.486 460.342 199.166 460.432C201.346 460.732 203.496 461.182 205.616 461.782C207.126 462.212 208.576 462.842 210.106 463.242C211.646 463.642 214.146 463.462 212.826 461.192C212.446 460.532 211.796 460.082 211.126 459.702C206.456 457.032 200.816 455.182 195.556 457.372C194.926 457.632 194.266 457.992 194.006 458.622C193.426 460.022 195.506 460.412 196.446 460.462H196.436Z" fill="#FFE576"/>
<path d="M107.282 313.87C107.473 313.743 107.671 313.623 107.862 313.496C110.034 312.112 111.863 310.672 113.223 309.336C114.329 308.246 115.625 308.358 116.413 309.249C117.216 310.171 117.534 311.452 116.389 312.645C114.591 314.554 112.006 316.598 109.111 318.491C105.484 320.853 101.937 323.383 98.4767 326.071C97.3393 326.954 96.0428 326.684 95.1838 325.626C94.3248 324.56 94.3168 323.144 95.4861 322.229C97.6018 320.583 99.7414 319 101.913 317.481C101.738 317.234 101.571 316.988 101.396 316.749C100.95 316.121 101.682 314.872 103.321 313.774C104.959 312.677 106.407 312.518 106.797 313.122C106.956 313.377 107.123 313.623 107.282 313.878V313.87ZM85.8857 308.159C84.629 309.129 83.3802 309.034 82.5292 307.96C81.6781 306.894 81.8372 305.566 83.1257 304.572C85.2415 302.949 87.389 301.374 89.5604 299.847C89.1945 299.322 88.8287 298.797 88.4548 298.272C87.7708 297.294 88.3196 295.902 90.3956 294.502C92.4715 293.11 93.9669 293.134 94.6032 294.136C94.9532 294.677 95.2952 295.218 95.6451 295.751C97.8086 294.359 99.988 293.023 102.191 291.734C103.575 290.923 104.84 291.297 105.508 292.482C106.176 293.675 105.818 294.852 104.474 295.64C98.087 299.378 91.875 303.546 85.8857 308.151V308.159ZM95.6372 302.305C101.499 298.384 106.439 298.479 108.467 302.027C110.511 305.606 108.34 309.638 102.963 313.234C97.6018 316.845 92.9647 317.393 90.4274 314.148C87.906 310.935 89.7831 306.258 95.6372 302.305ZM106.534 321.386C108.308 320.583 109.708 321.211 110.256 322.484C110.535 323.12 110.901 323.749 111.139 324.107C111.974 325.363 113.04 325.3 116.834 322.953C120.636 320.631 123.094 318.618 125.186 316.654C126.459 315.413 127.882 315.429 128.853 316.614C129.903 317.863 129.974 319.247 128.853 320.336C126.284 322.858 123.897 324.822 118.942 327.869C112.364 332.021 109.262 332.013 106.383 328.076C105.755 327.209 105.047 326.095 104.657 325.053C104.068 323.534 104.888 322.15 106.534 321.378V321.386ZM100.728 309.893C102.931 308.421 103.83 306.751 102.963 305.375C102.096 304.007 100.147 304.11 97.8722 305.638C95.5974 307.165 94.7384 308.946 95.6849 310.259C96.6314 311.579 98.5324 311.364 100.728 309.893ZM106.884 289.523C106.208 288.29 106.884 286.882 108.825 285.864C110.773 284.846 112.301 285.093 112.929 286.357C114.424 289.348 115.92 292.347 117.407 295.337C118.64 294.725 119.873 294.128 121.114 293.54C122.505 292.888 123.826 293.611 124.383 294.852C124.939 296.101 124.597 297.469 123.253 298.097C122.052 298.662 120.851 299.243 119.658 299.839C121.32 303.18 122.991 306.513 124.653 309.853C125.281 311.118 124.74 312.383 123.126 313.226C121.511 314.069 120.159 313.798 119.483 312.557C115.283 304.874 111.084 297.191 106.884 289.507V289.523Z" fill="#5ED3CC"/>
<path d="M132.949 275.795C139.694 273.417 145.953 275.963 147.568 282.023C149.191 288.1 145.699 293.215 139.829 295.29C133.951 297.358 127.97 295.585 125.416 289.842C122.871 284.115 126.204 278.182 132.949 275.795ZM138.135 290.494C140.935 289.508 142.144 286.987 141.181 283.924C140.219 280.87 137.642 279.526 134.643 280.584C131.644 281.642 130.475 284.314 131.636 287.297C132.806 290.28 135.343 291.481 138.135 290.494ZM149.899 293.827C155.959 292.101 161.344 294.917 162.49 300.596C163.643 306.299 160.43 310.809 155.164 312.312C149.899 313.807 144.752 311.675 142.724 306.219C140.704 300.787 143.838 295.545 149.899 293.819V293.827ZM153.78 307.468C156.27 306.76 157.487 304.573 156.826 301.916C156.166 299.267 153.947 297.915 151.283 298.671C148.618 299.434 147.433 301.749 148.268 304.35C149.103 306.951 151.298 308.176 153.788 307.468H153.78ZM150.439 283.407C151.617 283.097 152.794 282.803 153.971 282.517C153.637 281.148 153.311 279.772 152.977 278.404C151.768 278.699 150.567 279.001 149.358 279.311C147.998 279.669 147.099 278.993 146.709 277.593C146.319 276.193 146.733 275.056 148.141 274.682C149.374 274.356 150.614 274.046 151.855 273.743C151.744 273.29 151.633 272.829 151.521 272.375C151.179 270.967 152.205 269.743 154.4 269.257C156.588 268.78 158.035 269.456 158.322 270.88C159.547 276.965 160.764 283.049 161.988 289.142C162.275 290.566 161.352 291.703 159.451 292.117C157.55 292.538 156.238 291.894 155.888 290.486C155.617 289.381 155.355 288.267 155.085 287.162C153.939 287.44 152.794 287.726 151.656 288.029C150.368 288.371 149.501 287.679 149.111 286.279C148.721 284.879 149.103 283.749 150.439 283.399V283.407Z" fill="#5ED3CC"/>
<path d="M168.901 274.181C167.373 274.403 166.316 273.576 166.101 272.224C165.886 270.872 166.642 269.671 168.217 269.44C170.762 269.074 173.323 268.764 175.876 268.501C175.812 267.881 175.749 267.253 175.685 266.632C175.542 265.232 176.783 264.198 178.93 264.023C181.078 263.848 182.47 264.668 182.557 266.075C182.597 266.704 182.637 267.324 182.677 267.953C185.15 267.794 187.624 267.69 190.098 267.634C191.688 267.603 192.635 268.661 192.643 270.029C192.651 271.397 191.752 272.383 190.209 272.415C183.082 272.574 175.964 273.162 168.901 274.173V274.181ZM179.718 274.077C186.391 273.544 190.44 276.662 190.495 281.339C190.559 286.056 186.996 289.174 180.998 289.651C175.001 290.152 170.969 287.654 170.261 283.001C169.553 278.372 173.045 274.634 179.718 274.077ZM200.684 300.11C200.462 304.747 198.608 306.235 189.056 306.465C179.503 306.911 177.618 305.559 177.069 300.945C176.759 298.273 176.751 295.481 177.037 293.214C177.252 291.472 178.676 290.844 180.378 291.083C182.08 291.321 183.011 292.419 182.804 294.057C182.772 294.328 182.74 294.606 182.701 294.877C186.805 294.574 190.917 294.431 195.029 294.455C195.029 293.97 195.029 293.485 195.037 292.999C195.037 291.552 196.071 290.438 198.075 290.486C200.08 290.542 201.05 291.703 200.987 293.151C200.883 295.465 200.78 297.788 200.676 300.102L200.684 300.11ZM180.641 285.268C183.082 285.069 184.522 283.542 184.411 281.578C184.307 279.621 182.637 278.245 180.076 278.46C177.523 278.674 176.099 280.297 176.314 282.246C176.528 284.202 178.199 285.475 180.641 285.268ZM182.565 299.251C182.581 299.482 182.597 299.705 182.621 299.935C182.764 301.749 183.321 302.003 188.889 301.765C194.464 301.606 194.997 301.311 195.013 299.498C195.013 299.267 195.013 299.044 195.013 298.814C190.861 298.79 186.709 298.933 182.565 299.251ZM195.109 267.332C195.109 265.749 196.779 264.946 198.672 264.994C200.573 265.041 202.196 265.924 202.116 267.507C202.005 270.021 201.893 272.542 201.782 275.055C203.214 275.119 204.645 275.199 206.085 275.294C207.612 275.397 208.423 276.455 208.288 278.03C208.153 279.605 207.214 280.424 205.735 280.321C204.343 280.225 202.951 280.146 201.559 280.082C201.464 282.286 201.368 284.489 201.265 286.7C201.201 288.108 199.714 288.983 198.067 288.943C196.421 288.903 194.989 287.917 194.989 286.461C195.021 280.082 195.061 273.703 195.093 267.324L195.109 267.332Z" fill="#5ED3CC"/>
<path d="M218.764 283.375C218.064 288.155 219.416 289.833 223.13 290.502C226.2 291.058 229.127 291.082 231.466 290.716C233.176 290.462 234.353 291.377 234.457 292.951C234.576 294.486 233.868 295.839 232.15 296.157C229.104 296.722 225.596 296.642 222.12 296.006C214.429 294.638 211.343 290.637 212.162 282.532C212.639 278.117 213.92 273.226 215.367 269.782C216.083 268.056 217.889 267.761 219.829 268.469C221.866 269.233 222.685 270.585 221.889 272.359C220.577 275.349 219.312 279.613 218.756 283.375H218.764ZM239.873 305.081C239.428 306.465 238.115 307.03 236.381 306.513C234.647 305.996 233.852 304.819 234.234 303.411C236.946 293.556 239.658 283.701 242.371 273.846C242.752 272.446 244.296 271.889 246.451 272.526C248.607 273.17 249.601 274.474 249.155 275.858C246.061 285.602 242.967 295.346 239.873 305.089V305.081Z" fill="#5ED3CC"/>
<path d="M258.111 283.932C256.863 283.311 256.473 281.983 256.918 280.782C257.395 279.501 258.716 278.666 260.227 279.255C265.628 281.355 270.949 283.725 276.167 286.358C277.63 287.097 277.909 288.648 277.272 289.857C276.636 291.066 275.276 291.655 273.86 290.939C270.678 289.332 267.457 287.829 264.196 286.429C262.16 289.038 260.378 292.14 258.978 295.441C257.093 299.943 257.777 301.772 260.991 303.331C263.631 304.636 266.503 305.304 268.396 305.471C270.098 305.63 271.092 306.799 270.822 308.263C270.535 309.853 269.541 310.863 268.07 310.8C265.27 310.665 262.486 310.036 258.756 308.318C252.13 305.304 249.752 301.351 252.83 292.991C254.103 289.595 255.932 286.485 258.111 283.94V283.932ZM283.214 290.645C283.985 289.269 285.87 289.396 287.565 290.39C289.259 291.384 290.293 292.983 289.458 294.327C287.724 297.143 285.99 299.951 284.264 302.766C285.512 303.538 286.753 304.325 287.986 305.129C289.298 305.988 289.394 307.499 288.607 308.668C287.819 309.837 286.459 310.251 285.186 309.424C283.993 308.644 282.784 307.881 281.575 307.133C278.831 311.579 276.095 316.034 273.351 320.48C272.603 321.681 270.933 321.744 269.573 320.949C268.213 320.146 267.489 318.619 268.197 317.346C273.2 308.446 278.203 299.545 283.206 290.653L283.214 290.645Z" fill="#5ED3CC"/>
<path d="M289.243 324.259C290.945 325.555 291.208 327.965 289.863 329.62C288.519 331.282 286.189 331.592 284.582 330.375C282.983 329.151 282.673 326.828 283.922 325.094C285.163 323.36 287.541 322.962 289.243 324.259ZM300.577 302.505C301.627 300.795 303.679 300.676 305.914 302.378C308.149 304.08 308.595 306.1 307.219 307.572C302.948 312.209 298.708 316.878 294.501 321.578C293.665 322.493 292.417 322.597 291.208 321.682C289.999 320.759 289.776 319.542 290.492 318.421C293.888 313.147 297.253 307.842 300.577 302.513V302.505Z" fill="#5ED3CC"/>
<rect x="128" y="830" width="134" height="5" rx="2.5" fill="black"/>
</svg>
