<svg width="26" height="34" viewBox="0 0 26 34" fill="none" xmlns="http://www.w3.org/2000/svg">
<g filter="url(#filter0_d_1303_34057)">
<path d="M13.005 0C6.93224 0 2 4.90836 2 10.9563C2 12.1959 2.2101 13.4155 2.61028 14.5651C2.61028 14.7151 2.64029 14.855 2.70032 14.995C4.02092 17.8241 5.64165 19.8134 7.35243 21.9227C7.68258 22.3326 8.02273 22.7424 8.36289 23.1823C10.1137 25.3815 10.894 27.7408 11.0441 28.2306C11.1241 29.2203 11.9545 30 12.965 30C13.9754 30 14.8058 29.2203 14.8858 28.2306C15.0359 27.7408 15.8063 25.3915 17.5671 23.1823C17.9072 22.7524 18.2474 22.3326 18.5775 21.9327C19.8481 20.3632 21.0486 18.8837 22.1191 17.0943C22.5693 16.4245 22.9495 15.7048 23.2496 14.955C23.7499 13.6854 24 12.3459 24 10.9663C24.01 4.90836 19.0778 0 13.005 0Z" fill="#B8B0DA"/>
<path d="M13.0057 14.6051C15.2159 14.6051 17.0075 12.8149 17.0075 10.6065C17.0075 8.39805 15.2159 6.60779 13.0057 6.60779C10.7956 6.60779 9.00391 8.39805 9.00391 10.6065C9.00391 12.8149 10.7956 14.6051 13.0057 14.6051Z" fill="white"/>
</g>
<defs>
<filter id="filter0_d_1303_34057" x="0" y="0" width="26" height="34" filterUnits="userSpaceOnUse" color-interpolation-filters="sRGB">
<feFlood flood-opacity="0" result="BackgroundImageFix"/>
<feColorMatrix in="SourceAlpha" type="matrix" values="0 0 0 0 0 0 0 0 0 0 0 0 0 0 0 0 0 0 127 0" result="hardAlpha"/>
<feOffset dy="2"/>
<feGaussianBlur stdDeviation="1"/>
<feComposite in2="hardAlpha" operator="out"/>
<feColorMatrix type="matrix" values="0 0 0 0 0 0 0 0 0 0 0 0 0 0 0 0 0 0 0.1 0"/>
<feBlend mode="normal" in2="BackgroundImageFix" result="effect1_dropShadow_1303_34057"/>
<feBlend mode="normal" in="SourceGraphic" in2="effect1_dropShadow_1303_34057" result="shape"/>
</filter>
</defs>
</svg>
