<svg width="22" height="30" viewBox="0 0 22 30" fill="none" xmlns="http://www.w3.org/2000/svg">
<path d="M1.31028 14.5651V14.4468L1.27137 14.335C0.896691 13.2587 0.7 12.1168 0.7 10.9563C0.7 5.29797 5.31582 0.7 11.005 0.7C16.694 0.7 21.3093 5.29753 21.3 10.9652V10.9663C21.3 12.2594 21.0659 13.5112 20.599 14.6967C20.3173 15.4002 19.9604 16.0756 19.5382 16.7038L19.5279 16.7191L19.5184 16.7349C18.4813 18.4686 17.3171 19.9066 16.0481 21.4741L16.0356 21.4896C15.7035 21.8919 15.3613 22.3143 15.0189 22.7469C13.1788 25.0561 12.3771 27.5014 12.2166 28.0255L12.1943 28.0983L12.1881 28.1742C12.1373 28.8031 11.6079 29.3 10.965 29.3C10.3221 29.3 9.79269 28.8031 9.74183 28.1742L9.73569 28.0983L9.7134 28.0255C9.55264 27.5008 8.74157 25.048 6.91366 22.7502C6.66801 22.4327 6.4194 22.1268 6.18071 21.833C6.08444 21.7145 5.98977 21.598 5.89757 21.4836L5.89609 21.4817L5.87489 21.4556C4.17193 19.356 2.61356 17.4346 1.34019 14.7109C1.31825 14.6573 1.31028 14.613 1.31028 14.5651Z" fill='currentColor' stroke="url(#paint0_linear_2873_50724)" stroke-width="1.4"/>
<path d="M14.3462 7.22266H12.3052V11.4014H12.2407L9.39404 7.22266H7.65381V15H9.69482V10.7998H9.74854L12.6382 15H14.3462V7.22266Z" fill="white"/>
<defs>
<linearGradient id="paint0_linear_2873_50724" x1="11" y1="0" x2="11" y2="30" gradientUnits="userSpaceOnUse">
<stop stop-color="#00CCBD"/>
<stop offset="1" stop-color="#96EFAF"/>
</linearGradient>
</defs>
</svg>
