<svg width="26" height="34" viewBox="0 0 26 34" fill="none" xmlns="http://www.w3.org/2000/svg">
<g filter="url(#filter0_d_1922_56438)">
<path d="M3.31028 14.4468V14.5651C3.31028 14.613 3.31825 14.6573 3.34019 14.7109C4.61356 17.4346 6.17193 19.356 7.8749 21.4556L7.89609 21.4817L7.89757 21.4836C7.98978 21.598 8.08444 21.7145 8.18072 21.833C8.41941 22.1268 8.66801 22.4327 8.91366 22.7502C10.7416 25.048 11.5526 27.5008 11.7134 28.0255L11.7357 28.0983L11.7418 28.1742C11.7927 28.8031 12.3221 29.3 12.965 29.3C13.6079 29.3 14.1373 28.8031 14.1881 28.1742L14.1943 28.0983L14.2166 28.0255C14.3771 27.5014 15.1788 25.0561 17.0189 22.7469C17.0192 22.7466 17.0194 22.7463 17.0197 22.746L17.5671 23.1823C17.9072 22.7524 18.2474 22.3326 18.5775 21.9327L3.31028 14.4468ZM3.31028 14.4468L3.27137 14.335C2.89669 13.2587 2.7 12.1168 2.7 10.9563C2.7 5.29797 7.31582 0.7 13.005 0.7C18.694 0.7 23.3093 5.29753 23.3 10.9652V10.9663C23.3 12.2593 23.0659 13.5111 22.5991 14.6965C22.3173 15.4001 21.9605 16.0756 21.5382 16.7038L21.5279 16.7191L21.5184 16.7349C20.4813 18.4686 19.3171 19.9066 18.0481 21.4741L18.0355 21.4897L3.31028 14.4468Z" fill="#B8B0DA" stroke="url(#paint0_linear_1922_56438)" stroke-width="1.4"/>
<path d="M16.3462 7.22266H14.3052V11.4014H14.2407L11.394 7.22266H9.65381V15H11.6948V10.7998H11.7485L14.6382 15H16.3462V7.22266Z" fill="white"/>
</g>
<defs>
<filter id="filter0_d_1922_56438" x="0" y="0" width="26" height="34" filterUnits="userSpaceOnUse" color-interpolation-filters="sRGB">
<feFlood flood-opacity="0" result="BackgroundImageFix"/>
<feColorMatrix in="SourceAlpha" type="matrix" values="0 0 0 0 0 0 0 0 0 0 0 0 0 0 0 0 0 0 127 0" result="hardAlpha"/>
<feOffset dy="2"/>
<feGaussianBlur stdDeviation="1"/>
<feComposite in2="hardAlpha" operator="out"/>
<feColorMatrix type="matrix" values="0 0 0 0 0 0 0 0 0 0 0 0 0 0 0 0 0 0 0.1 0"/>
<feBlend mode="normal" in2="BackgroundImageFix" result="effect1_dropShadow_1922_56438"/>
<feBlend mode="normal" in="SourceGraphic" in2="effect1_dropShadow_1922_56438" result="shape"/>
</filter>
<linearGradient id="paint0_linear_1922_56438" x1="13" y1="0" x2="13" y2="30" gradientUnits="userSpaceOnUse">
<stop stop-color="#00CCBD"/>
<stop offset="1" stop-color="#96EFAF"/>
</linearGradient>
</defs>
</svg>
