<svg width="22" height="30" viewBox="0 0 22 30" fill="none" xmlns="http://www.w3.org/2000/svg">
<path d="M11.005 0C4.93224 0 0 4.90836 0 10.9563C0 12.1959 0.210095 13.4155 0.610277 14.5651C0.610277 14.7151 0.640291 14.855 0.700318 14.995C2.02092 17.8241 3.64165 19.8134 5.35243 21.9227C5.68258 22.3326 6.02273 22.7424 6.36289 23.1823C8.11368 25.3815 8.89404 27.7408 9.0441 28.2306C9.12414 29.2203 9.95452 30 10.965 30C11.9754 30 12.8058 29.2203 12.8858 28.2306C13.0359 27.7408 13.8063 25.3915 15.5671 23.1823C15.9072 22.7524 16.2474 22.3326 16.5775 21.9327C17.8481 20.3632 19.0486 18.8837 20.1191 17.0943C20.5693 16.4245 20.9495 15.7048 21.2496 14.955C21.7499 13.6854 22 12.3459 22 10.9663C22.01 4.90836 17.0778 0 11.005 0Z" fill="#5ED3CC"/>
</svg>
