<svg width="40" height="55" viewBox="0 0 40 55" fill="none" xmlns="http://www.w3.org/2000/svg">
<g filter="url(#filter0_d_2877_80031)">
<path d="M20.0082 3C10.0709 3 2 10.8534 2 20.5302C2 22.5135 2.34379 24.4648 2.99864 26.3042C2.99864 26.5442 3.04775 26.7681 3.14597 26.992C5.30696 31.5185 7.95907 34.7014 10.7585 38.0763C11.2988 38.7321 11.8554 39.3879 12.412 40.0916C15.2769 43.6105 16.5539 47.3852 16.7994 48.1689C16.9304 49.7524 18.2892 51 19.9427 51C21.5962 51 22.955 49.7524 23.0859 48.1689C23.3315 47.3852 24.5921 43.6265 27.4734 40.0916C28.03 39.4039 28.5866 38.7321 29.1269 38.0923C31.206 35.5811 33.1705 33.2139 34.9222 30.3509C35.6589 29.2792 36.281 28.1276 36.7721 26.928C37.5907 24.8967 38 22.7534 38 20.5462C38.0163 10.8534 29.9454 3 20.0082 3Z" fill="#5ED3CC"/>
<circle cx="20" cy="21" r="8" fill="white"/>
</g>
<defs>
<filter id="filter0_d_2877_80031" x="0" y="0" width="40" height="55" filterUnits="userSpaceOnUse" color-interpolation-filters="sRGB">
<feFlood flood-opacity="0" result="BackgroundImageFix"/>
<feColorMatrix in="SourceAlpha" type="matrix" values="0 0 0 0 0 0 0 0 0 0 0 0 0 0 0 0 0 0 127 0" result="hardAlpha"/>
<feOffset dy="2"/>
<feGaussianBlur stdDeviation="1"/>
<feComposite in2="hardAlpha" operator="out"/>
<feColorMatrix type="matrix" values="0 0 0 0 0 0 0 0 0 0 0 0 0 0 0 0 0 0 0.1 0"/>
<feBlend mode="normal" in2="BackgroundImageFix" result="effect1_dropShadow_2877_80031"/>
<feBlend mode="normal" in="SourceGraphic" in2="effect1_dropShadow_2877_80031" result="shape"/>
</filter>
</defs>
</svg>
