<svg width="40" height="109" viewBox="0 0 40 109" fill="none" xmlns="http://www.w3.org/2000/svg">
<g filter="url(#filter0_d_2877_80031)">
<path d="M20.0082 57C10.0709 57 2 64.8534 2 74.5302C2 76.5135 2.34379 78.4648 2.99864 80.3042C2.99864 80.5442 3.04775 80.7681 3.14597 80.992C5.30696 85.5185 7.95907 88.7014 10.7585 92.0763C11.2988 92.7321 11.8554 93.3879 12.412 94.0916C15.2769 97.6105 16.5539 101.385 16.7994 102.169C16.9304 103.752 18.2892 105 19.9427 105C21.5962 105 22.955 103.752 23.0859 102.169C23.3315 101.385 24.5921 97.6265 27.4734 94.0916C28.03 93.4039 28.5866 92.7321 29.1269 92.0923C31.206 89.5811 33.1705 87.2139 34.9222 84.3509C35.6589 83.2792 36.281 82.1276 36.7721 80.928C37.5907 78.8967 38 76.7534 38 74.5462C38.0163 64.8534 29.9454 57 20.0082 57Z" fill="#5ED3CC"/>
<circle cx="20" cy="75" r="8" fill="white"/>
</g>
<defs>
<filter id="filter0_d_2877_80031" x="0" y="0" width="40" height="109" filterUnits="userSpaceOnUse" color-interpolation-filters="sRGB">
<feFlood flood-opacity="0" result="BackgroundImageFix"/>
<feColorMatrix in="SourceAlpha" type="matrix" values="0 0 0 0 0 0 0 0 0 0 0 0 0 0 0 0 0 0 127 0" result="hardAlpha"/>
<feOffset dy="2"/>
<feGaussianBlur stdDeviation="1"/>
<feComposite in2="hardAlpha" operator="out"/>
<feColorMatrix type="matrix" values="0 0 0 0 0 0 0 0 0 0 0 0 0 0 0 0 0 0 0.1 0"/>
<feBlend mode="normal" in2="BackgroundImageFix" result="effect1_dropShadow_2877_80031"/>
<feBlend mode="normal" in="SourceGraphic" in2="effect1_dropShadow_2877_80031" result="shape"/>
</filter>
</defs>
</svg>
