<svg width="24" height="24" viewBox="0 0 24 24" fill="none" xmlns="http://www.w3.org/2000/svg">
<g clip-path="url(#clip0_1103_65330)">
<path d="M12 21.2C13.7674 21.2 15.2 19.7673 15.2 18C15.2 16.2327 13.7674 14.8 12 14.8C10.2327 14.8 8.80005 16.2327 8.80005 18C8.80005 19.7673 10.2327 21.2 12 21.2Z" fill="white"/>
<path d="M6.28005 18.2C6.28005 18.2 6.20005 18.17 6.16005 18.16C5.37005 18 4.80005 17.3 4.80005 16.49C4.80005 15.68 5.37005 14.98 6.16005 14.82C6.53005 14.74 6.80005 14.42 6.80005 14.04V9.98999C6.80005 7.11999 9.13005 4.78999 12 4.78999C14.87 4.78999 17.2 7.11999 17.2 9.98999V14.04C17.2 14.42 17.47 14.75 17.84 14.82C18.63 14.98 19.2 15.68 19.2 16.49C19.2 17.3 18.63 18 17.84 18.16C17.8 18.16 17.76 18.18 17.72 18.2H6.28005Z" fill="white"/>
<path d="M12 5.6C14.43 5.6 16.4 7.57 16.4 10V14.05C16.4 14.81 16.94 15.47 17.68 15.62C18.1 15.7 18.4 16.08 18.4 16.5C18.4 16.92 18.1 17.3 17.68 17.38C17.65 17.38 17.63 17.39 17.6 17.4H6.4C6.4 17.4 6.35 17.39 6.32 17.38C5.9 17.3 5.6 16.92 5.6 16.5C5.6 16.08 5.9 15.7 6.32 15.62C7.07 15.47 7.6 14.81 7.6 14.05V10C7.6 7.57 9.57 5.6 12 5.6ZM12 4C8.69 4 6 6.69 6 10V14.05C4.86 14.28 4 15.29 4 16.5C4 17.71 4.86 18.72 6 18.95V19H18V18.95C19.14 18.72 20 17.71 20 16.5C20 15.29 19.14 14.28 18 14.05V10C18 6.69 15.31 4 12 4Z" fill="#030416"/>
<path d="M12 5.6C14.43 5.6 16.4 7.57 16.4 10V14.05C16.4 14.81 16.94 15.47 17.68 15.62C18.1 15.7 18.4 16.08 18.4 16.5C18.4 16.92 18.1 17.3 17.68 17.38C17.65 17.38 17.63 17.39 17.6 17.4H6.4C6.4 17.4 6.35 17.39 6.32 17.38C5.9 17.3 5.6 16.92 5.6 16.5C5.6 16.08 5.9 15.7 6.32 15.62C7.07 15.47 7.6 14.81 7.6 14.05V10C7.6 7.57 9.57 5.6 12 5.6ZM12 4C8.69 4 6 6.69 6 10V14.05C4.86 14.28 4 15.29 4 16.5C4 17.71 4.86 18.72 6 18.95V19H18V18.95C19.14 18.72 20 17.71 20 16.5C20 15.29 19.14 14.28 18 14.05V10C18 6.69 15.31 4 12 4Z" fill="#030416"/>
<path d="M12 20.4C10.68 20.4 9.6 19.32 9.6 18H8C8 20.21 9.79 22 12 22C14.21 22 16 20.21 16 18H14.4C14.4 19.32 13.32 20.4 12 20.4Z" fill="#030416"/>
</g>
<defs>
<clipPath id="clip0_1103_65330">
<rect width="24" height="24" fill="white"/>
</clipPath>
</defs>
</svg>
