<svg width="194" height="40" viewBox="0 0 194 40" fill="none" xmlns="http://www.w3.org/2000/svg">
<path d="M0 10.6676C0 3.79413 4.50897 0 10.1177 0C13.6919 0 16.4962 1.3197 18.0909 4.01408C19.6305 1.3197 22.7098 0 26.009 0C31.6727 0 36.1817 3.79413 36.1817 10.6676V26.7789C36.1817 28.0436 35.1919 29.0334 33.9822 29.0334C32.7725 29.0334 31.7827 28.0436 31.7827 26.7789V10.6126C31.7827 6.26856 29.2533 4.06907 26.009 4.06907C22.7648 4.06907 20.2904 6.26856 20.2904 10.6126V26.7789C20.2904 28.0436 19.3006 29.0334 18.0909 29.0334C16.8811 29.0334 15.8914 28.0436 15.8914 26.7789V10.6126C15.8914 6.26856 13.3619 4.06907 10.1177 4.06907C6.87343 4.06907 4.39899 6.26856 4.39899 10.6126V26.7789C4.39899 28.0436 3.40922 29.0334 2.1995 29.0334C0.989773 29.0334 0 28.0436 0 26.7789V10.6676Z" fill="#030416"/>
<path d="M66.1772 24.7443C63.5928 27.4937 60.0186 29.1433 55.8946 29.1433C47.8114 29.1433 41.6528 22.7098 41.6528 14.5717C41.6528 6.43353 47.8114 0 55.8946 0C60.0186 0 63.5928 1.70461 66.1772 4.39899V2.30947C66.1772 1.09975 67.167 0.109975 68.3767 0.109975C69.5864 0.109975 70.5762 1.09975 70.5762 2.30947V26.7789C70.5762 28.0436 69.6414 29.0334 68.3767 29.0334C67.112 29.0334 66.1772 28.0436 66.1772 26.7789V24.7443ZM66.1772 15.0116V14.1318C65.9573 8.41307 61.6133 4.06907 56.1695 4.06907C50.7258 4.06907 46.1068 8.63302 46.1068 14.5717C46.1068 20.5103 50.5608 25.0743 56.1695 25.0743C61.7782 25.0743 65.9573 20.7303 66.1772 15.0116Z" fill="#030416"/>
<path d="M82.4537 24.7443V37.2265C82.4537 38.4912 81.4639 39.481 80.2542 39.481C79.0445 39.481 78.0547 38.4912 78.0547 37.2265V2.30947C78.0547 1.09975 78.9895 0.109975 80.2542 0.109975C81.5189 0.109975 82.4537 1.09975 82.4537 2.30947V4.39899C84.9831 1.70461 88.6123 0 92.7363 0C100.819 0 106.978 6.43353 106.978 14.5717C106.978 22.7098 100.819 29.1433 92.7363 29.1433C88.6123 29.1433 84.9831 27.4937 82.4537 24.7443ZM102.524 14.5717C102.524 8.63302 98.0701 4.06907 92.4614 4.06907C86.8527 4.06907 82.6736 8.41307 82.4537 14.1318V15.0116C82.6736 20.7303 86.9627 25.0743 92.4614 25.0743C97.9601 25.0743 102.524 20.5103 102.524 14.5717Z" fill="#030416"/>
<path d="M113.219 20.3453C113.934 20.3453 114.814 20.7852 115.089 21.665C115.584 23.2047 117.013 25.1842 119.983 25.1842C122.622 25.1842 124.327 23.2597 124.327 21.1702C124.327 18.4208 122.127 17.1561 119.213 16.1663C115.419 14.9016 111.57 13.4169 111.57 7.97317C111.57 3.46421 115.144 0 120.038 0C124.657 0 128.561 2.85935 128.561 6.59849C128.561 7.69824 127.681 8.57804 126.581 8.57804C125.976 8.57804 124.987 8.3031 124.657 7.03839C124.272 5.60872 122.622 3.90411 120.038 3.90411C117.453 3.90411 115.804 5.82867 115.804 7.97317C115.804 10.8875 118.443 11.8773 121.687 12.922C125.152 13.9668 128.726 15.8914 128.726 21.0602C128.726 25.4042 124.987 29.1433 119.983 29.1433C114.979 29.1433 111.24 25.8991 111.24 22.3249C111.24 21.2251 112.12 20.3453 113.219 20.3453Z" fill="#030416"/>
<path d="M137.468 5.4167C143.221 -0.336355 152.205 -0.453203 158.04 5.37546C160.879 8.21419 162.165 11.6715 162.281 14.5927C162.323 15.2526 162.123 15.9124 161.663 16.3798C161.271 16.7716 160.81 16.9984 159.992 17.0397L144.788 17.0259C144.129 17.0672 143.62 16.8678 143.194 16.4417C142.342 15.5894 142.3 14.3796 143.118 13.5617C143.469 13.2112 143.895 12.9431 144.438 12.9431L157.656 13.2318C157.497 11.3622 156.453 9.54076 155.167 8.25543C151.201 4.28946 144.788 4.40631 140.623 8.56473C136.458 12.7232 136.307 19.1017 140.314 23.1089C142.527 25.3221 145.249 26.1057 147.82 25.9476C148.638 25.9889 149.297 26.0232 149.84 26.5731C150.734 27.4667 150.775 28.752 149.916 29.6043C149.607 29.9136 148.981 30.1473 148.397 30.1885C144.823 30.4978 140.699 29.2537 137.434 25.9889C131.64 20.1946 131.715 11.1766 137.475 5.4167H137.468Z" fill="#5ED3CC"/>
<path d="M188.999 5.4167C183.245 -0.336355 174.262 -0.453203 168.426 5.37546C165.588 8.21419 164.302 11.6715 164.185 14.5927C164.144 15.2526 164.344 15.9124 164.804 16.3798C165.196 16.7716 165.656 16.9984 166.474 17.0397L181.678 17.0259C182.338 17.0672 182.847 16.8678 183.273 16.4417C184.125 15.5894 184.167 14.3796 183.349 13.5617C182.998 13.2112 182.572 12.9431 182.029 12.9431L168.811 13.2318C168.969 11.3622 170.014 9.54076 171.299 8.25543C175.265 4.28946 181.678 4.40631 185.844 8.56473C190.009 12.7232 190.16 19.1017 186.153 23.1089C183.94 25.3221 181.218 26.1057 178.647 25.9476C177.829 25.9889 177.169 26.0232 176.626 26.5731C175.733 27.4667 175.692 28.752 176.551 29.6043C176.86 29.9136 177.486 30.1473 178.07 30.1885C181.644 30.4978 185.768 29.2537 189.033 25.9889C194.827 20.1946 194.752 11.1766 188.992 5.4167H188.999Z" fill="#5ED3CC"/>
</svg>
