<svg width="24" height="24" viewBox="0 0 24 24" fill="none" xmlns="http://www.w3.org/2000/svg">
<g clip-path="url(#clip0_1_440)">
<path d="M8.5 10H3.5" stroke="#5ED3CC" stroke-width="1.6" stroke-linecap="round" stroke-linejoin="round"/>
<path d="M6 7.5V12.5" stroke="#5ED3CC" stroke-width="1.6" stroke-linecap="round" stroke-linejoin="round"/>
<path d="M14.5 11.2C15.9912 11.2 17.2 9.99117 17.2 8.5C17.2 7.00883 15.9912 5.8 14.5 5.8C13.0088 5.8 11.8 7.00883 11.8 8.5C11.8 9.99117 13.0088 11.2 14.5 11.2Z" fill="white"/>
<path d="M14.5 6.6C15.55 6.6 16.4 7.45 16.4 8.5C16.4 9.55 15.55 10.4 14.5 10.4C13.45 10.4 12.6 9.55 12.6 8.5C12.6 7.45 13.45 6.6 14.5 6.6ZM14.5 5C12.57 5 11 6.57 11 8.5C11 10.43 12.57 12 14.5 12C16.43 12 18 10.43 18 8.5C18 6.57 16.43 5 14.5 5Z" fill="#030416"/>
<path d="M9.47004 19.2C9.05004 19.2 8.66003 18.99 8.44003 18.63C8.22003 18.28 8.20004 17.88 8.37004 17.52C9.44004 15.28 11.85 13.84 14.5 13.84C17.15 13.84 19.56 15.28 20.63 17.52C20.8 17.88 20.78 18.28 20.56 18.63C20.33 18.99 19.95 19.2 19.53 19.2H9.47004Z" fill="white"/>
<path d="M14.5 14.64C16.85 14.64 18.97 15.91 19.91 17.87C19.96 17.98 19.95 18.1 19.88 18.21C19.84 18.27 19.73 18.41 19.52 18.41H9.47003C9.26003 18.41 9.15003 18.27 9.11003 18.21C9.04003 18.1 9.03003 17.98 9.08003 17.87C10.02 15.91 12.14 14.64 14.49 14.64M14.49 13.04C11.43 13.04 8.80003 14.74 7.64003 17.17C7.01003 18.48 8.01003 20 9.47003 20H19.53C20.99 20 21.98 18.48 21.36 17.17C20.19 14.73 17.56 13.04 14.51 13.04H14.49Z" fill="#030416"/>
</g>
<defs>
<clipPath id="clip0_1_440">
<rect width="24" height="24" fill="white"/>
</clipPath>
</defs>
</svg>
