<svg width="40" height="40" viewBox="0 0 40 40" fill="none" xmlns="http://www.w3.org/2000/svg">
<g clip-path="url(#clip0_1265_33552)">
<g clip-path="url(#clip1_1265_33552)">
<path d="M8.33003 34.16C6.96003 34.16 5.84003 33.04 5.84003 31.67V16.67C5.84003 15.3 6.96003 14.18 8.33003 14.18H11.66C11.98 14.18 12.27 14 12.41 13.71C13.93 10.66 15.87 9.17999 18.32 9.17999H21.65C24.1 9.17999 26.04 10.66 27.56 13.71C27.7 14 27.99 14.18 28.31 14.18H31.64C33.01 14.18 34.13 15.3 34.13 16.67V31.67C34.13 33.04 33.01 34.16 31.64 34.16H8.33003Z" fill="white"/>
<path d="M21.67 10.02C23.77 10.02 25.46 11.35 26.83 14.09C27.12 14.66 27.7 15.02 28.34 15.02H31.67C32.58 15.02 33.32 15.76 33.32 16.67V31.67C33.32 32.58 32.58 33.32 31.67 33.32H8.33C7.42 33.32 6.68 32.58 6.68 31.67V16.67C6.68 15.76 7.42 15.02 8.33 15.02H11.66C12.3 15.02 12.88 14.66 13.17 14.09C14.54 11.35 16.23 10.02 18.33 10.02H21.66M21.66 8.34H18.33C15.56 8.34 13.33 10.01 11.66 13.34H8.33C6.5 13.34 5 14.84 5 16.67V31.67C5 33.5 6.5 35 8.33 35H31.67C33.5 35 35 33.5 35 31.67V16.67C35 14.84 33.5 13.34 31.67 13.34H28.34C26.67 10.01 24.44 8.34 21.67 8.34H21.66Z" fill="#030416"/>
<path d="M25.87 23.33C25.87 26.569 23.2474 29.2 20 29.2C16.7518 29.2 14.13 26.5782 14.13 23.33C14.13 20.0818 16.7518 17.46 20 17.46C23.2482 17.46 25.87 20.0818 25.87 23.33Z" fill="#5ED3CC" stroke="#030416" stroke-width="1.6"/>
<rect x="27" y="17" width="4" height="2" rx="1" fill="#030416"/>
</g>
</g>
<defs>
<clipPath id="clip0_1265_33552">
<rect width="40" height="40" fill="white"/>
</clipPath>
<clipPath id="clip1_1265_33552">
<rect width="40" height="40" fill="white"/>
</clipPath>
</defs>
</svg>
