<svg width="24" height="24" viewBox="0 0 24 24" fill="none" xmlns="http://www.w3.org/2000/svg">
<path fill-rule="evenodd" clip-rule="evenodd" d="M19.2 12C19.2 11.5582 19.5582 11.2 20 11.2H21C21.4418 11.2 21.8 11.5582 21.8 12C21.8 12.4418 21.4418 12.8 21 12.8H20C19.5582 12.8 19.2 12.4418 19.2 12Z" fill="#030416"/>
<path fill-rule="evenodd" clip-rule="evenodd" d="M2.20001 12C2.20001 11.5582 2.55818 11.2 3.00001 11.2H4.00001C4.44184 11.2 4.80001 11.5582 4.80001 12C4.80001 12.4418 4.44184 12.8 4.00001 12.8H3.00001C2.55818 12.8 2.20001 12.4418 2.20001 12Z" fill="#030416"/>
<path fill-rule="evenodd" clip-rule="evenodd" d="M12 2.2C12.4418 2.2 12.8 2.55817 12.8 3V4C12.8 4.44182 12.4418 4.8 12 4.8C11.5582 4.8 11.2 4.44182 11.2 4V3C11.2 2.55817 11.5582 2.2 12 2.2Z" fill="#030416"/>
<path fill-rule="evenodd" clip-rule="evenodd" d="M12 19.2C12.4418 19.2 12.8 19.5582 12.8 20V21C12.8 21.4418 12.4418 21.8 12 21.8C11.5582 21.8 11.2 21.4418 11.2 21V20C11.2 19.5582 11.5582 19.2 12 19.2Z" fill="#030416"/>
<path d="M12 5.6C15.53 5.6 18.4 8.47 18.4 12C18.4 15.53 15.53 18.4 12 18.4C8.47 18.4 5.6 15.53 5.6 12C5.6 8.47 8.47 5.6 12 5.6ZM12 4C7.58 4 4 7.58 4 12C4 16.42 7.58 20 12 20C16.42 20 20 16.42 20 12C20 7.58 16.42 4 12 4Z" fill="#030416"/>
<path d="M12 16C14.2091 16 16 14.2091 16 12C16 9.79086 14.2091 8 12 8C9.79086 8 8 9.79086 8 12C8 14.2091 9.79086 16 12 16Z" fill="#5ED3CC"/>
</svg>
