<svg width="24" height="24" viewBox="0 0 24 24" fill="none" xmlns="http://www.w3.org/2000/svg">
<path d="M19 4.8H4.99999C4.33725 4.8 3.79999 5.33726 3.79999 6V19C3.79999 19.6627 4.33725 20.2 4.99999 20.2H19C19.6627 20.2 20.2 19.6627 20.2 19V6C20.2 5.33726 19.6627 4.8 19 4.8Z" fill="white"/>
<path d="M19 5.6C19.22 5.6 19.4 5.78 19.4 6V19C19.4 19.22 19.22 19.4 19 19.4H5C4.78 19.4 4.6 19.22 4.6 19V6C4.6 5.78 4.78 5.6 5 5.6H19ZM19 4H5C3.9 4 3 4.9 3 6V19C3 20.1 3.9 21 5 21H19C20.1 21 21 20.1 21 19V6C21 4.9 20.1 4 19 4Z" fill="#030416"/>
<path d="M16.83 12H12.17C11.5238 12 11 12.5238 11 13.17V17.83C11 18.4762 11.5238 19 12.17 19H16.83C17.4762 19 18 18.4762 18 17.83V13.17C18 12.5238 17.4762 12 16.83 12Z" fill="#5ED3CC"/>
<path fill-rule="evenodd" clip-rule="evenodd" d="M20.5 10.3H3.5V8.7H20.5V10.3Z" fill="#030416"/>
<path fill-rule="evenodd" clip-rule="evenodd" d="M7.50001 1.7C7.94184 1.7 8.30001 2.05817 8.30001 2.5V4.5C8.30001 4.94182 7.94184 5.3 7.50001 5.3C7.05818 5.3 6.70001 4.94182 6.70001 4.5V2.5C6.70001 2.05817 7.05818 1.7 7.50001 1.7Z" fill="#030416"/>
<path fill-rule="evenodd" clip-rule="evenodd" d="M16.5 1.7C16.9418 1.7 17.3 2.05817 17.3 2.5V4.5C17.3 4.94182 16.9418 5.3 16.5 5.3C16.0582 5.3 15.7 4.94182 15.7 4.5V2.5C15.7 2.05817 16.0582 1.7 16.5 1.7Z" fill="#030416"/>
</svg>
