<svg width="24" height="24" viewBox="0 0 24 24" fill="none" xmlns="http://www.w3.org/2000/svg">
<g clip-path="url(#clip0_1_632)">
<path d="M9 4V3.5C9 2.67 9.67 2 10.5 2H13.5C14.33 2 15 2.67 15 3.5V4H18.5C19.33 4 20 4.67 20 5.5C20 6.33 19.33 7 18.5 7H5.5C4.67 7 4 6.33 4 5.5C4 4.67 4.67 4 5.5 4H9Z" fill="#5ED3CC"/>
<path d="M7.99999 21.2C7.33999 21.2 6.79999 20.66 6.79999 20L5.79999 9.92C5.79999 9.34 6.33999 8.8 6.99999 8.8H17C17.66 8.8 18.2 9.34 18.2 10L17.2 19.92C17.2 20.66 16.66 21.2 16 21.2H7.99999Z" fill="white"/>
<path d="M17 9.6C17.2 9.6 17.37 9.75 17.4 9.95L16.41 19.84C16.41 19.89 16.41 19.95 16.41 20C16.41 20.22 16.23 20.4 16.01 20.4H8C7.78 20.4 7.6 20.22 7.6 20C7.6 19.95 7.6 19.89 7.6 19.84L6.61 9.95C6.63 9.75 6.8 9.6 7.01 9.6H17.01M17.01 8H7C5.9 8 5 8.9 5 10L6 20C6 21.1 6.9 22 8 22H16C17.1 22 18 21.1 18 20L19 10C19 8.9 18.1 8 17 8H17.01Z" fill="#030416"/>
</g>
<defs>
<clipPath id="clip0_1_632">
<rect width="24" height="24" fill="white"/>
</clipPath>
</defs>
</svg>
