<svg width="24" height="24" viewBox="0 0 24 24" fill="none" xmlns="http://www.w3.org/2000/svg">
<path d="M3.88999 20.2C3.88999 20.2 3.79999 20.16 3.79999 20.11V17.36L17.44 3.69H17.56L20.31 6.44C20.31 6.44 20.34 6.53 20.31 6.56L6.68999 20.17L6.62999 20.2H3.88999Z" fill="white"/>
<path d="M17.5 4.76L19.24 6.5L6.34 19.4H4.6V17.66L17.5 4.76ZM17.5 2.87C17.27 2.87 17.05 2.96 16.87 3.13L3.26 16.74C3.09 16.91 3 17.13 3 17.37V20.12C3 20.61 3.4 21.01 3.89 21.01H6.64C6.87 21.01 7.1 20.92 7.27 20.75L20.87 7.13C21.22 6.78 21.22 6.22 20.87 5.88L18.12 3.13C17.95 2.96 17.72 2.87 17.49 2.87H17.5Z" fill="#030416"/>
<path d="M4 20H7L8 19L5 16L4 17V20Z" fill="#5ED3CC"/>
<path d="M17.5 4.76L19.24 6.5L6.34 19.4H4.6V17.66L17.5 4.76ZM17.5 2.87C17.27 2.87 17.05 2.96 16.87 3.13L3.26 16.74C3.09 16.91 3 17.13 3 17.37V20.12C3 20.61 3.4 21.01 3.89 21.01H6.64C6.87 21.01 7.1 20.92 7.27 20.75L20.87 7.13C21.22 6.78 21.22 6.22 20.87 5.88L18.12 3.13C17.95 2.96 17.72 2.87 17.49 2.87H17.5Z" fill="#030416"/>
</svg>
