<svg width="24" height="24" viewBox="0 0 24 24" fill="none" xmlns="http://www.w3.org/2000/svg">
<g clip-path="url(#clip0_1_342)">
<path d="M11 19.2C10.34 19.2 9.80001 18.66 9.80001 18V11C9.80001 10.81 9.73001 10.62 9.61001 10.48L4.82001 4.9L4.87001 4.8H19.13L19.17 4.9L14.39 10.48C14.27 10.62 14.2 10.81 14.2 11V18C14.2 18.66 13.66 19.2 13 19.2H11Z" fill="white"/>
<path d="M17.52 5.6L13.78 9.96C13.53 10.25 13.39 10.62 13.39 11V18C13.39 18.22 13.21 18.4 12.99 18.4H10.99C10.77 18.4 10.59 18.22 10.59 18V11C10.59 10.62 10.45 10.25 10.2 9.96L6.45999 5.6H17.5M19.11 4H4.86999C4.13999 4 3.73999 4.86 4.21999 5.42L8.99999 11V18C8.99999 19.1 9.89999 20 11 20H13C14.1 20 15 19.1 15 18V11L19.78 5.42C20.26 4.86 19.86 4 19.13 4H19.11Z" fill="#030416"/>
<path d="M5 5L10 11H14.24L19 5.19L5 5Z" fill="#5ED3CC"/>
<path d="M17.52 5.6L13.78 9.96C13.53 10.25 13.39 10.62 13.39 11V18C13.39 18.22 13.21 18.4 12.99 18.4H10.99C10.77 18.4 10.59 18.22 10.59 18V11C10.59 10.62 10.45 10.25 10.2 9.96L6.45999 5.6H17.5M19.11 4H4.86999C4.13999 4 3.73999 4.86 4.21999 5.42L8.99999 11V18C8.99999 19.1 9.89999 20 11 20H13C14.1 20 15 19.1 15 18V11L19.78 5.42C20.26 4.86 19.86 4 19.13 4H19.11Z" fill="#030416"/>
</g>
<defs>
<clipPath id="clip0_1_342">
<rect width="24" height="24" fill="white"/>
</clipPath>
</defs>
</svg>
