<svg width="24" height="24" viewBox="0 0 24 24" fill="none" xmlns="http://www.w3.org/2000/svg">
<path d="M4.99999 20.2C4.33999 20.2 3.79999 19.66 3.79999 19V7C3.79999 6.34 4.33999 5.8 4.99999 5.8H8.99999C10.35 5.8 11.42 6.64 12.28 8.36C12.42 8.63 12.69 8.8 13 8.8H19C19.66 8.8 20.2 9.34 20.2 10V19C20.2 19.66 19.66 20.2 19 20.2H4.99999Z" fill="white"/>
<path d="M9 6.6C9.65 6.6 10.62 6.82 11.57 8.72C11.84 9.26 12.4 9.6 13 9.6H19C19.22 9.6 19.4 9.78 19.4 10V19C19.4 19.22 19.22 19.4 19 19.4H5C4.78 19.4 4.6 19.22 4.6 19V7C4.6 6.78 4.78 6.6 5 6.6H9ZM9 5H5C3.9 5 3 5.9 3 7V19C3 20.1 3.9 21 5 21H19C20.1 21 21 20.1 21 19V10C21 8.9 20.1 8 19 8H13C12 6 10.66 5 9 5Z" fill="#030416"/>
<path d="M16.83 11H12.17C11.5238 11 11 11.5238 11 12.17V16.83C11 17.4762 11.5238 18 12.17 18H16.83C17.4762 18 18 17.4762 18 16.83V12.17C18 11.5238 17.4762 11 16.83 11Z" fill="#5ED3CC"/>
</svg>
