<svg width="24" height="24" viewBox="0 0 24 24" fill="none" xmlns="http://www.w3.org/2000/svg">
<path d="M14.5 5C13.76 5 13.07 5.24 12.5 5.63C13.4 6.26 14 7.31 14 8.5C14 9.69 13.4 10.73 12.5 11.37C13.07 11.77 13.76 12 14.5 12C16.43 12 18 10.43 18 8.5C18 6.57 16.43 5 14.5 5Z" fill="#5ED3CC"/>
<path d="M21.35 17.17C20.18 14.73 17.55 13.04 14.5 13.04C13.81 13.04 13.14 13.14 12.5 13.3C14.67 13.86 16.45 15.29 17.35 17.17C17.98 18.48 16.98 20 15.52 20H19.52C20.98 20 21.97 18.48 21.35 17.17Z" fill="#5ED3CC"/>
<path d="M10.5 11.2C11.9912 11.2 13.2 9.99117 13.2 8.5C13.2 7.00883 11.9912 5.8 10.5 5.8C9.00888 5.8 7.80005 7.00883 7.80005 8.5C7.80005 9.99117 9.00888 11.2 10.5 11.2Z" fill="white"/>
<path d="M10.5 6.6C11.55 6.6 12.4 7.45 12.4 8.5C12.4 9.55 11.55 10.4 10.5 10.4C9.45 10.4 8.6 9.55 8.6 8.5C8.6 7.45 9.45 6.6 10.5 6.6ZM10.5 5C8.57 5 7 6.57 7 8.5C7 10.43 8.57 12 10.5 12C12.43 12 14 10.43 14 8.5C14 6.57 12.43 5 10.5 5Z" fill="#030416"/>
<path d="M5.46991 19.2C5.04991 19.2 4.65991 18.99 4.43991 18.63C4.21991 18.28 4.19991 17.88 4.36991 17.52C5.43991 15.28 7.84991 13.84 10.4999 13.84C13.1499 13.84 15.5599 15.28 16.6299 17.52C16.7999 17.88 16.7799 18.28 16.5599 18.63C16.3299 18.99 15.9499 19.2 15.5299 19.2H5.46991Z" fill="white"/>
<path d="M10.5 14.64C12.85 14.64 14.97 15.91 15.91 17.87C15.96 17.98 15.95 18.1 15.88 18.21C15.84 18.27 15.73 18.41 15.52 18.41H5.46997C5.25997 18.41 5.14997 18.27 5.10997 18.21C5.03997 18.1 5.02997 17.98 5.07997 17.87C6.01997 15.91 8.13997 14.64 10.49 14.64M10.49 13.04C7.42997 13.04 4.79997 14.74 3.63997 17.17C3.00997 18.48 4.00997 20 5.46997 20H15.53C16.99 20 17.98 18.48 17.36 17.17C16.19 14.73 13.56 13.04 10.51 13.04H10.49Z" fill="#030416"/>
</svg>
