<svg width="24" height="24" viewBox="0 0 24 24" fill="none" xmlns="http://www.w3.org/2000/svg">
<path d="M19 3.8H4.99999C4.33725 3.8 3.79999 4.33726 3.79999 5V19C3.79999 19.6627 4.33725 20.2 4.99999 20.2H19C19.6627 20.2 20.2 19.6627 20.2 19V5C20.2 4.33726 19.6627 3.8 19 3.8Z" fill="white"/>
<path d="M19 4.6C19.22 4.6 19.4 4.78 19.4 5V19C19.4 19.22 19.22 19.4 19 19.4H5C4.78 19.4 4.6 19.22 4.6 19V5C4.6 4.78 4.78 4.6 5 4.6H19ZM19 3H5C3.9 3 3 3.9 3 5V19C3 20.1 3.9 21 5 21H19C20.1 21 21 20.1 21 19V5C21 3.9 20.1 3 19 3Z" fill="#030416"/>
<path d="M12.72 10.92L9.45998 15.8C8.83998 16.74 9.50998 17.99 10.63 17.99H16.6C17.67 17.99 18.35 16.84 17.83 15.9L15.12 11.02C14.61 10.1 13.3 10.04 12.71 10.92H12.72Z" fill="#5ED3CC"/>
<path d="M8.06 13.41L6.16 16.25C5.66 17 6.2 18 7.1 18H10.89C11.79 18 12.33 17 11.83 16.25L9.93 13.41C9.48 12.74 8.5 12.74 8.06 13.41Z" fill="#5ED3CC"/>
</svg>
