<svg width="24" height="24" viewBox="0 0 24 24" fill="none" xmlns="http://www.w3.org/2000/svg">
<g clip-path="url(#clip0_2766_50813)">
<path fill-rule="evenodd" clip-rule="evenodd" d="M6.07996 4.8C5.75309 4.8 5.42996 5.08985 5.42996 5.51V18.49C5.42996 18.9101 5.75309 19.2 6.07996 19.2H14.3C14.7418 19.2 15.1 19.5582 15.1 20C15.1 20.4418 14.7418 20.8 14.3 20.8H6.07996C4.80682 20.8 3.82996 19.7299 3.82996 18.49V5.51C3.82996 4.27014 4.80682 3.2 6.07996 3.2H14.3C14.7418 3.2 15.1 3.55817 15.1 4C15.1 4.44182 14.7418 4.8 14.3 4.8H6.07996Z" fill="#030416"/>
<path fill-rule="evenodd" clip-rule="evenodd" d="M14.4343 6.93431C14.7467 6.62189 15.2532 6.62189 15.5656 6.93431L20.0656 11.4343C20.3781 11.7467 20.3781 12.2533 20.0656 12.5657L15.5656 17.0657C15.2532 17.3781 14.7467 17.3781 14.4343 17.0657C14.1218 16.7533 14.1218 16.2467 14.4343 15.9343L18.3686 12L14.4343 8.06568C14.1218 7.75326 14.1218 7.24673 14.4343 6.93431Z" fill="#5ED3CC"/>
<path fill-rule="evenodd" clip-rule="evenodd" d="M9.19995 12C9.19995 11.5582 9.55812 11.2 9.99995 11.2H19C19.4418 11.2 19.8 11.5582 19.8 12C19.8 12.4418 19.4418 12.8 19 12.8H9.99995C9.55812 12.8 9.19995 12.4418 9.19995 12Z" fill="#5ED3CC"/>
</g>
<defs>
<clipPath id="clip0_2766_50813">
<rect width="24" height="24" fill="white"/>
</clipPath>
</defs>
</svg>
