<svg width="24" height="24" viewBox="0 0 24 24" fill="none" xmlns="http://www.w3.org/2000/svg">
<path d="M12 20.2005C11.46 20.2005 10.95 19.9905 10.56 19.6105L6.90004 15.9805C5.54004 14.6305 4.79004 12.8405 4.79004 10.9405C4.79004 9.04055 5.54004 7.24055 6.90004 5.90055C8.26004 4.55055 10.07 3.81055 11.99 3.81055C13.91 3.81055 15.72 4.55055 17.08 5.90055C18.44 7.25055 19.19 9.04055 19.19 10.9405C19.19 12.8405 18.44 14.6405 17.08 15.9805L13.42 19.6105C13.04 19.9905 12.53 20.2005 11.98 20.2005H12Z" fill="white"/>
<path d="M12 4.6C13.71 4.6 15.32 5.26 16.53 6.46C17.74 7.66 18.4 9.25 18.4 10.94C18.4 12.63 17.74 14.22 16.53 15.42L12.87 19.05C12.64 19.28 12.33 19.41 12 19.41C11.67 19.41 11.36 19.28 11.13 19.05L7.47 15.42C6.26 14.22 5.6 12.63 5.6 10.94C5.6 9.25 6.26 7.66 7.47 6.46C8.68 5.26 10.29 4.6 12 4.6ZM12 3C9.95 3 7.91 3.77 6.34 5.32C3.22 8.42 3.22 13.45 6.34 16.54L10 20.17C10.55 20.72 11.28 20.99 12 20.99C12.72 20.99 13.45 20.72 14 20.17L17.66 16.54C20.78 13.44 20.78 8.41 17.66 5.32C16.1 3.77 14.05 3 12 3Z" fill="#030416"/>
<path d="M12 18C15.866 18 19 14.866 19 11C19 7.13401 15.866 4 12 4C8.13401 4 5 7.13401 5 11C5 14.866 8.13401 18 12 18Z" fill="#5ED3CC"/>
<path d="M11.9998 13.7008C13.491 13.7008 14.6998 12.492 14.6998 11.0008C14.6998 9.50961 13.491 8.30078 11.9998 8.30078C10.5086 8.30078 9.2998 9.50961 9.2998 11.0008C9.2998 12.492 10.5086 13.7008 11.9998 13.7008Z" fill="white"/>
<path d="M12 9.1C13.05 9.1 13.9 9.95 13.9 11C13.9 12.05 13.05 12.9 12 12.9C10.95 12.9 10.1 12.05 10.1 11C10.1 9.95 10.95 9.1 12 9.1ZM12 7.5C10.07 7.5 8.5 9.07 8.5 11C8.5 12.93 10.07 14.5 12 14.5C13.93 14.5 15.5 12.93 15.5 11C15.5 9.07 13.93 7.5 12 7.5Z" fill="#030416"/>
<path d="M12 4.6C13.71 4.6 15.32 5.26 16.53 6.46C17.74 7.66 18.4 9.25 18.4 10.94C18.4 12.63 17.74 14.22 16.53 15.42L12.87 19.05C12.64 19.28 12.33 19.41 12 19.41C11.67 19.41 11.36 19.28 11.13 19.05L7.47 15.42C6.26 14.22 5.6 12.63 5.6 10.94C5.6 9.25 6.26 7.66 7.47 6.46C8.68 5.26 10.29 4.6 12 4.6ZM12 3C9.95 3 7.91 3.77 6.34 5.32C3.22 8.42 3.22 13.45 6.34 16.54L10 20.17C10.55 20.72 11.28 20.99 12 20.99C12.72 20.99 13.45 20.72 14 20.17L17.66 16.54C20.78 13.44 20.78 8.41 17.66 5.32C16.1 3.77 14.05 3 12 3Z" fill="#030416"/>
</svg>
