<svg width="24" height="24" viewBox="0 0 24 24" fill="none" xmlns="http://www.w3.org/2000/svg">
<path d="M17.99 20.38C17.77 20.38 17.45 20.32 17.16 20.02L14.57 17.43C14.42 17.28 14.22 17.2 14 17.2H4.99999C4.33999 17.2 3.79999 16.66 3.79999 16V7C3.79999 6.34 4.33999 5.8 4.99999 5.8H18C18.66 5.8 19.2 6.34 19.2 7V19.17C19.2 19.6 19 19.88 18.83 20.04C18.6 20.25 18.29 20.37 17.98 20.37L17.99 20.38Z" fill="white"/>
<path d="M18 6.6C18.22 6.6 18.4 6.78 18.4 7V19.17C18.4 19.5 18.09 19.57 17.99 19.57C17.89 19.57 17.8 19.53 17.72 19.45L15.13 16.86C14.83 16.56 14.42 16.39 14 16.39H5C4.78 16.39 4.6 16.21 4.6 15.99V7C4.6 6.78 4.78 6.6 5 6.6H18ZM18 5H5C3.9 5 3 5.9 3 7V16C3 17.1 3.9 18 5 18H14L16.59 20.59C17 21 17.5 21.18 17.99 21.18C19.02 21.18 20 20.38 20 19.18V16.01V7C20 5.9 19.1 5 18 5Z" fill="#030416"/>
<path d="M15.83 8H11.17C10.5238 8 10 8.52383 10 9.17V13.83C10 14.4762 10.5238 15 11.17 15H15.83C16.4762 15 17 14.4762 17 13.83V9.17C17 8.52383 16.4762 8 15.83 8Z" fill="#5ED3CC"/>
</svg>
