<svg width="24" height="24" viewBox="0 0 24 24" fill="none" xmlns="http://www.w3.org/2000/svg">
<path d="M12.0521 10.2008C13.5432 10.2008 14.7521 8.99195 14.7521 7.50078C14.7521 6.00961 13.5432 4.80078 12.0521 4.80078C10.5609 4.80078 9.35205 6.00961 9.35205 7.50078C9.35205 8.99195 10.5609 10.2008 12.0521 10.2008Z" fill="white"/>
<path d="M12.0522 5.6C13.1022 5.6 13.9522 6.45 13.9522 7.5C13.9522 8.55 13.1022 9.4 12.0522 9.4C11.0022 9.4 10.1522 8.55 10.1522 7.5C10.1522 6.45 11.0022 5.6 12.0522 5.6ZM12.0522 4C10.1222 4 8.55225 5.57 8.55225 7.5C8.55225 9.43 10.1222 11 12.0522 11C13.9822 11 15.5522 9.43 15.5522 7.5C15.5522 5.57 13.9822 4 12.0522 4Z" fill="black"/>
<path d="M7.02228 18.1998C6.60228 18.1998 6.21228 17.9898 5.99228 17.6298C5.77228 17.2798 5.75228 16.8798 5.92228 16.5198C6.99228 14.2798 9.40228 12.8398 12.0523 12.8398C14.7023 12.8398 17.1123 14.2798 18.1823 16.5198C18.3523 16.8798 18.3323 17.2798 18.1123 17.6298C17.8823 17.9898 17.5023 18.1998 17.0823 18.1998H7.02228Z" fill="#00CCBD"/>
<path d="M12.0521 13.6391C14.4021 13.6391 16.5221 14.9091 17.4621 16.8691C17.5121 16.9791 17.5021 17.0991 17.4321 17.2091C17.3921 17.2691 17.2821 17.4091 17.0721 17.4091H7.02209C6.81209 17.4091 6.70209 17.2691 6.66209 17.2091C6.59209 17.0991 6.58209 16.9791 6.63209 16.8691C7.57209 14.9091 9.69209 13.6391 12.0421 13.6391M12.0421 12.0391C8.98209 12.0391 6.35209 13.7391 5.19209 16.1691C4.56209 17.4791 5.56209 18.9991 7.02209 18.9991H17.0821C18.5421 18.9991 19.5321 17.4791 18.9121 16.1691C17.7421 13.7291 15.1121 12.0391 12.0621 12.0391H12.0421Z" fill="black"/>
</svg>
