<svg width="24" height="24" viewBox="0 0 24 24" fill="none" xmlns="http://www.w3.org/2000/svg">
<path d="M12 11.2008C13.4912 11.2008 14.7 9.99195 14.7 8.50078C14.7 7.00961 13.4912 5.80078 12 5.80078C10.5089 5.80078 9.30005 7.00961 9.30005 8.50078C9.30005 9.99195 10.5089 11.2008 12 11.2008Z" fill="white"/>
<path d="M12 6.6C13.05 6.6 13.9 7.45 13.9 8.5C13.9 9.55 13.05 10.4 12 10.4C10.95 10.4 10.1 9.55 10.1 8.5C10.1 7.45 10.95 6.6 12 6.6ZM12 5C10.07 5 8.5 6.57 8.5 8.5C8.5 10.43 10.07 12 12 12C13.93 12 15.5 10.43 15.5 8.5C15.5 6.57 13.93 5 12 5Z" fill="black"/>
<path d="M12 14.6391C14.35 14.6391 16.47 15.9091 17.41 17.8691C17.46 17.9791 17.45 18.0991 17.38 18.2091C17.34 18.2691 17.23 18.4091 17.02 18.4091H6.96997C6.75997 18.4091 6.64997 18.2691 6.60997 18.2091C6.53997 18.0991 6.52997 17.9791 6.57997 17.8691C7.51997 15.9091 9.63997 14.6391 11.99 14.6391M11.99 13.0391C8.92997 13.0391 6.29997 14.7391 5.13997 17.1691C4.50997 18.4791 5.50997 19.9991 6.96997 19.9991H17.03C18.49 19.9991 19.48 18.4791 18.86 17.1691C17.69 14.7291 15.06 13.0391 12.01 13.0391H11.99Z" fill="black"/>
</svg>
