<svg width="24" height="24" viewBox="0 0 24 24" fill="none" xmlns="http://www.w3.org/2000/svg">
<path d="M11.9998 11.2008C13.491 11.2008 14.6998 9.99195 14.6998 8.50078C14.6998 7.00961 13.491 5.80078 11.9998 5.80078C10.5086 5.80078 9.2998 7.00961 9.2998 8.50078C9.2998 9.99195 10.5086 11.2008 11.9998 11.2008Z" fill="white"/>
<path d="M12 6.6C13.05 6.6 13.9 7.45 13.9 8.5C13.9 9.55 13.05 10.4 12 10.4C10.95 10.4 10.1 9.55 10.1 8.5C10.1 7.45 10.95 6.6 12 6.6ZM12 5C10.07 5 8.5 6.57 8.5 8.5C8.5 10.43 10.07 12 12 12C13.93 12 15.5 10.43 15.5 8.5C15.5 6.57 13.93 5 12 5Z" fill="black"/>
<path d="M11.9998 14.6391C14.3498 14.6391 16.4698 15.9091 17.4098 17.8691C17.4598 17.9791 17.4498 18.0991 17.3798 18.2091C17.3398 18.2691 17.2298 18.4091 17.0198 18.4091H6.96985C6.75985 18.4091 6.64985 18.2691 6.60985 18.2091C6.53985 18.0991 6.52985 17.9791 6.57985 17.8691C7.51985 15.9091 9.63985 14.6391 11.9898 14.6391M11.9898 13.0391C8.92985 13.0391 6.29985 14.7391 5.13985 17.1691C4.50985 18.4791 5.50985 19.9991 6.96985 19.9991H17.0298C18.4898 19.9991 19.4798 18.4791 18.8598 17.1691C17.6898 14.7291 15.0598 13.0391 12.0098 13.0391H11.9898Z" fill="black"/>
</svg>
