<svg width="24" height="24" viewBox="0 0 24 24" fill="none" xmlns="http://www.w3.org/2000/svg">
<g clip-path="url(#clip0_2297_6862)">
<path d="M6.2798 18.1991C6.2798 18.1991 6.1998 18.1691 6.1598 18.1591C5.3698 17.9991 4.7998 17.2991 4.7998 16.4891C4.7998 15.6791 5.3698 14.9791 6.1598 14.8191C6.5298 14.7391 6.7998 14.4191 6.7998 14.0391V9.98906C6.7998 7.11906 9.1298 4.78906 11.9998 4.78906C14.8698 4.78906 17.1998 7.11906 17.1998 9.98906V14.0391C17.1998 14.4191 17.4698 14.7491 17.8398 14.8191C18.6298 14.9791 19.1998 15.6791 19.1998 16.4891C19.1998 17.2991 18.6298 17.9991 17.8398 18.1591C17.7998 18.1591 17.7598 18.1791 17.7198 18.1991H6.2798V18.1991Z" fill="white"/>
<path d="M12 5.6C14.43 5.6 16.4 7.57 16.4 10V14.05C16.4 14.81 16.94 15.47 17.68 15.62C18.1 15.7 18.4 16.08 18.4 16.5C18.4 16.92 18.1 17.3 17.68 17.38C17.65 17.38 17.63 17.39 17.6 17.4H6.4C6.4 17.4 6.35 17.39 6.32 17.38C5.9 17.3 5.6 16.92 5.6 16.5C5.6 16.08 5.9 15.7 6.32 15.62C7.07 15.47 7.6 14.81 7.6 14.05V10C7.6 7.57 9.57 5.6 12 5.6ZM12 4C8.69 4 6 6.69 6 10V14.05C4.86 14.28 4 15.29 4 16.5C4 17.71 4.86 18.72 6 18.95V19H18V18.95C19.14 18.72 20 17.71 20 16.5C20 15.29 19.14 14.28 18 14.05V10C18 6.69 15.31 4 12 4V4Z" fill="#030416"/>
<path d="M12 5.6C14.43 5.6 16.4 7.57 16.4 10V14.05C16.4 14.81 16.94 15.47 17.68 15.62C18.1 15.7 18.4 16.08 18.4 16.5C18.4 16.92 18.1 17.3 17.68 17.38C17.65 17.38 17.63 17.39 17.6 17.4H6.4C6.4 17.4 6.35 17.39 6.32 17.38C5.9 17.3 5.6 16.92 5.6 16.5C5.6 16.08 5.9 15.7 6.32 15.62C7.07 15.47 7.6 14.81 7.6 14.05V10C7.6 7.57 9.57 5.6 12 5.6ZM12 4C8.69 4 6 6.69 6 10V14.05C4.86 14.28 4 15.29 4 16.5C4 17.71 4.86 18.72 6 18.95V19H18V18.95C19.14 18.72 20 17.71 20 16.5C20 15.29 19.14 14.28 18 14.05V10C18 6.69 15.31 4 12 4V4Z" fill="#030416"/>
<path d="M12 20.4C10.68 20.4 9.6 19.32 9.6 18H8C8 20.21 9.79 22 12 22C14.21 22 16 20.21 16 18H14.4C14.4 19.32 13.32 20.4 12 20.4Z" fill="#030416"/>
</g>
<defs>
<clipPath id="clip0_2297_6862">
<rect width="24" height="24" fill="white"/>
</clipPath>
</defs>
</svg>
