<svg width="24" height="24" viewBox="0 0 24 24" fill="none" xmlns="http://www.w3.org/2000/svg">
<path d="M12.74 4.81L14.57 8.52C14.69 8.76 14.92 8.93 15.19 8.97L19.28 9.56C19.96 9.66 20.23 10.49 19.74 10.97L16.78 13.86C16.58 14.05 16.5 14.32 16.54 14.59L17.24 18.67C17.36 19.35 16.65 19.86 16.04 19.54L12.38 17.61C12.14 17.48 11.85 17.48 11.61 17.61L7.95002 19.54C7.34002 19.86 6.63002 19.34 6.75002 18.67L7.45002 14.59C7.50002 14.32 7.41002 14.05 7.21002 13.86L4.25002 10.97C3.76002 10.49 4.03002 9.66 4.71002 9.56L8.80002 8.97C9.07002 8.93 9.30002 8.76 9.42002 8.52L11.25 4.81C11.55 4.19 12.43 4.19 12.73 4.81H12.74Z" fill="#5ED3CC"/>
<path d="M12 4.35C12.3 4.35 12.59 4.5 12.74 4.81L14.57 8.52C14.69 8.76 14.92 8.93 15.19 8.97L19.28 9.56C19.96 9.66 20.23 10.49 19.74 10.97L16.78 13.86C16.58 14.05 16.5 14.32 16.54 14.59L17.24 18.67C17.33 19.2 16.91 19.64 16.42 19.64C16.29 19.64 16.16 19.61 16.03 19.54L12.37 17.61C12.25 17.55 12.12 17.51 11.98 17.51C11.84 17.51 11.72 17.54 11.59 17.61L7.93002 19.54C7.80002 19.61 7.67002 19.64 7.54002 19.64C7.06002 19.64 6.63002 19.21 6.72002 18.67L7.42002 14.59C7.47002 14.32 7.38002 14.05 7.18002 13.86L4.22002 10.97C3.73002 10.49 4.00002 9.66 4.68002 9.56L8.77002 8.97C9.04002 8.93 9.27002 8.76 9.39002 8.52L11.22 4.81C11.37 4.5 11.67 4.35 11.96 4.35M11.96 2.81C11.05 2.81 10.24 3.32 9.84002 4.13L8.17002 7.5L4.45002 8.04C3.55002 8.17 2.82002 8.79 2.54002 9.65C2.26002 10.51 2.49002 11.44 3.14002 12.08L5.84002 14.71L5.20002 18.42C5.08002 19.11 5.27002 19.81 5.72002 20.34C6.17002 20.88 6.83002 21.19 7.53002 21.19C7.91002 21.19 8.29002 21.1 8.63002 20.92L11.96 19.17L15.29 20.92C15.63 21.1 16.01 21.19 16.39 21.19C17.09 21.19 17.75 20.88 18.2 20.34C18.65 19.81 18.84 19.11 18.72 18.42L18.08 14.71L20.78 12.08C21.43 11.45 21.66 10.52 21.38 9.65C21.1 8.79 20.37 8.17 19.47 8.04L15.75 7.5L14.08 4.13C13.68 3.32 12.87 2.81 11.96 2.81Z" fill="#030416"/>
</svg>
