<svg width="24" height="24" viewBox="0 0 24 24" fill="none" xmlns="http://www.w3.org/2000/svg">
<path d="M9.99999 15.2C12.8719 15.2 15.2 12.8719 15.2 10C15.2 7.12812 12.8719 4.8 9.99999 4.8C7.12811 4.8 4.79999 7.12812 4.79999 10C4.79999 12.8719 7.12811 15.2 9.99999 15.2Z" fill="#5ED3CC"/>
<path d="M10 5.6C12.43 5.6 14.4 7.57 14.4 10C14.4 12.43 12.43 14.4 10 14.4C7.57 14.4 5.6 12.43 5.6 10C5.6 7.57 7.57 5.6 10 5.6ZM10 4C6.69 4 4 6.69 4 10C4 13.31 6.69 16 10 16C13.31 16 16 13.31 16 10C16 6.69 13.31 4 10 4Z" fill="#030416"/>
<path fill-rule="evenodd" clip-rule="evenodd" d="M13.4343 13.4343C13.7467 13.1219 14.2533 13.1219 14.5657 13.4343L19.5657 18.4343C19.8781 18.7467 19.8781 19.2533 19.5657 19.5657C19.2533 19.8781 18.7467 19.8781 18.4343 19.5657L13.4343 14.5657C13.1219 14.2533 13.1219 13.7467 13.4343 13.4343Z" fill="#030416"/>
</svg>
