<svg width="36" height="48" viewBox="0 0 36 48" fill="none" xmlns="http://www.w3.org/2000/svg">
<path d="M18.0082 0C8.07094 0 0 7.85338 0 17.5302C0 19.5135 0.343792 21.4648 0.998635 23.3042C0.998635 23.5442 1.04775 23.7681 1.14597 23.992C3.30696 28.5185 5.95907 31.7014 8.75852 35.0763C9.29877 35.7321 9.85538 36.3879 10.412 37.0916C13.2769 40.6105 14.5539 44.3852 14.7994 45.1689C14.9304 46.7524 16.2892 48 17.9427 48C19.5962 48 20.955 46.7524 21.0859 45.1689C21.3315 44.3852 22.5921 40.6265 25.4734 37.0916C26.03 36.4039 26.5866 35.7321 27.1269 35.0923C29.206 32.5811 31.1705 30.2139 32.9222 27.3509C33.6589 26.2792 34.281 25.1276 34.7721 23.928C35.5907 21.8967 36 19.7534 36 17.5462C36.0163 7.85338 27.9454 0 18.0082 0Z" fill="#5ED3CC"/>
</svg>
