<svg width="24" height="24" viewBox="0 0 24 24" fill="none" xmlns="http://www.w3.org/2000/svg">
<path d="M15.98 3.8H8.02005C5.68941 3.8 3.80005 5.68936 3.80005 8.02V15.98C3.80005 18.3106 5.68941 20.2 8.02005 20.2H15.98C18.3107 20.2 20.2001 18.3106 20.2001 15.98V8.02C20.2001 5.68936 18.3107 3.8 15.98 3.8Z" fill="white"/>
<path d="M15.98 4.6C17.87 4.6 19.4 6.13 19.4 8.02V15.98C19.4 17.87 17.87 19.4 15.98 19.4H8.02C6.13 19.4 4.6 17.87 4.6 15.98V8.02C4.6 6.13 6.13 4.6 8.02 4.6H15.98ZM15.98 3H8.02C5.25 3 3 5.25 3 8.02V15.98C3 18.75 5.25 21 8.02 21H15.98C18.75 21 21 18.75 21 15.98V8.02C21 5.25 18.75 3 15.98 3Z" fill="black"/>
<path d="M16.5 9C17.3284 9 18 8.32843 18 7.5C18 6.67157 17.3284 6 16.5 6C15.6716 6 15 6.67157 15 7.5C15 8.32843 15.6716 9 16.5 9Z" fill="#00CCBD"/>
<path d="M12 9.6C13.32 9.6 14.4 10.68 14.4 12C14.4 13.32 13.32 14.4 12 14.4C10.68 14.4 9.6 13.32 9.6 12C9.6 10.68 10.68 9.6 12 9.6ZM12 8C9.79 8 8 9.79 8 12C8 14.21 9.79 16 12 16C14.21 16 16 14.21 16 12C16 9.79 14.21 8 12 8Z" fill="black"/>
</svg>
