<svg width="24" height="24" viewBox="0 0 24 24" fill="none" xmlns="http://www.w3.org/2000/svg">
<path d="M4.9998 20.2008C4.3398 20.2008 3.7998 19.6608 3.7998 19.0008V7.00078C3.7998 6.34078 4.3398 5.80078 4.9998 5.80078H8.9998C10.3498 5.80078 11.4198 6.64078 12.2798 8.36078C12.4198 8.63078 12.6898 8.80078 12.9998 8.80078H18.9998C19.6598 8.80078 20.1998 9.34078 20.1998 10.0008V19.0008C20.1998 19.6608 19.6598 20.2008 18.9998 20.2008H4.9998Z" fill="white"/>
<path d="M9 6.6C9.65 6.6 10.62 6.82 11.57 8.72C11.84 9.26 12.4 9.6 13 9.6H19C19.22 9.6 19.4 9.78 19.4 10V19C19.4 19.22 19.22 19.4 19 19.4H5C4.78 19.4 4.6 19.22 4.6 19V7C4.6 6.78 4.78 6.6 5 6.6H9ZM9 5H5C3.9 5 3 5.9 3 7V19C3 20.1 3.9 21 5 21H19C20.1 21 21 20.1 21 19V10C21 8.9 20.1 8 19 8H13C12 6 10.66 5 9 5Z" fill="#030416"/>
</svg>
