<svg width="24" height="24" viewBox="0 0 24 24" fill="none" xmlns="http://www.w3.org/2000/svg">
<g clip-path="url(#clip0_1265_33374)">
<path d="M21.71 11.29L12.71 2.29C12.32 1.9 11.69 1.9 11.3 2.29L2.29 11.29C1.9 11.68 1.9 12.31 2.29 12.7C2.68 13.09 3.31 13.09 3.7 12.7L10.99 5.41V21C10.99 21.55 11.44 22 11.99 22C12.54 22 12.99 21.55 12.99 21V5.41L20.28 12.7C20.48 12.9 20.73 12.99 20.99 12.99C21.25 12.99 21.5 12.89 21.7 12.7C22.09 12.31 22.09 11.68 21.7 11.29H21.71Z" fill="#5ED3CC"/>
</g>
<defs>
<clipPath id="clip0_1265_33374">
<rect width="24" height="24" fill="white"/>
</clipPath>
</defs>
</svg>
