<svg width="24" height="24" viewBox="0 0 24 24" fill="none" xmlns="http://www.w3.org/2000/svg">
<path d="M15 3.8H4.99999C4.33725 3.8 3.79999 4.33726 3.79999 5V19C3.79999 19.6627 4.33725 20.2 4.99999 20.2H15C15.6627 20.2 16.2 19.6627 16.2 19V5C16.2 4.33726 15.6627 3.8 15 3.8Z" fill="white"/>
<path d="M15 4.6C15.22 4.6 15.4 4.78 15.4 5V19C15.4 19.22 15.22 19.4 15 19.4H5C4.78 19.4 4.6 19.22 4.6 19V5C4.6 4.78 4.78 4.6 5 4.6H15ZM15 3H5C3.9 3 3 3.9 3 5V19C3 20.1 3.9 21 5 21H15C16.1 21 17 20.1 17 19V5C17 3.9 16.1 3 15 3Z" fill="#030416"/>
<path d="M21 18.99V13.01C21 11.8999 20.1001 11 18.99 11H14.01C12.8999 11 12 11.8999 12 13.01V18.99C12 20.1001 12.8999 21 14.01 21H18.99C20.1001 21 21 20.1001 21 18.99Z" fill="#5ED3CC"/>
<path d="M15 4.6C15.22 4.6 15.4 4.78 15.4 5V19C15.4 19.22 15.22 19.4 15 19.4H5C4.78 19.4 4.6 19.22 4.6 19V5C4.6 4.78 4.78 4.6 5 4.6H15ZM15 3H5C3.9 3 3 3.9 3 5V19C3 20.1 3.9 21 5 21H15C16.1 21 17 20.1 17 19V5C17 3.9 16.1 3 15 3Z" fill="#030416"/>
<path fill-rule="evenodd" clip-rule="evenodd" d="M6.20001 10C6.20001 9.55817 6.55818 9.2 7.00001 9.2H12C12.4418 9.2 12.8 9.55817 12.8 10C12.8 10.4418 12.4418 10.8 12 10.8H7.00001C6.55818 10.8 6.20001 10.4418 6.20001 10Z" fill="#030416"/>
<path fill-rule="evenodd" clip-rule="evenodd" d="M6.20001 14C6.20001 13.5582 6.55818 13.2 7.00001 13.2H10C10.4418 13.2 10.8 13.5582 10.8 14C10.8 14.4418 10.4418 14.8 10 14.8H7.00001C6.55818 14.8 6.20001 14.4418 6.20001 14Z" fill="#030416"/>
</svg>
